BioRhyme-Light Extended.ufo
<glyph name="exclam" format="1">
  <advance width="246"/>
  <unicode hex="0021"/>
  <outline>
    <contour>
      <point x="111" y="272" type="curve" smooth="yes"/>
      <point x="115" y="148" type="line"/>
      <point x="132" y="148" type="line"/>
      <point x="136" y="272" type="line" smooth="yes"/>
      <point x="141" y="423"/>
      <point x="154" y="524"/>
      <point x="154" y="542" type="curve"/>
      <point x="154" y="559"/>
      <point x="145" y="573"/>
      <point x="124" y="573" type="curve"/>
      <point x="102" y="573"/>
      <point x="93" y="559"/>
      <point x="93" y="542" type="curve"/>
      <point x="93" y="524"/>
      <point x="106" y="424"/>
    </contour>
    <component base="period"/>
  </outline>
</glyph>
<glyph name="numbersign" format="1">
  <advance width="748"/>
  <unicode hex="0023"/>
  <outline>
    <contour>
      <point x="622" y="490" type="line"/>
      <point x="597" y="490" type="line"/>
      <point x="419" y="0" type="line"/>
      <point x="443" y="0" type="line"/>
    </contour>
    <contour>
      <point x="328" y="490" type="line"/>
      <point x="303" y="490" type="line"/>
      <point x="125" y="0" type="line"/>
      <point x="149" y="0" type="line"/>
    </contour>
    <contour>
      <point x="49" y="332" type="line"/>
      <point x="748" y="332" type="line"/>
      <point x="748" y="355" type="line"/>
      <point x="49" y="355" type="line"/>
    </contour>
    <contour>
      <point x="0" y="152" type="line"/>
      <point x="699" y="152" type="line"/>
      <point x="699" y="175" type="line"/>
      <point x="0" y="175" type="line"/>
    </contour>
  </outline>
</glyph>
<glyph name="dollar" format="1">
  <advance width="808"/>
  <unicode hex="0024"/>
  <outline>
    <contour>
      <point x="425" y="594" type="line"/>
      <point x="425" y="-106" type="line"/>
      <point x="402" y="-106" type="line"/>
      <point x="402" y="594" type="line"/>
    </contour>
    <contour>
      <point x="217" y="467"/>
      <point x="136" y="434"/>
      <point x="136" y="362" type="curve" smooth="yes"/>
      <point x="136" y="300"/>
      <point x="211" y="262"/>
      <point x="414" y="244" type="curve" smooth="yes"/>
      <point x="633" y="225"/>
      <point x="731" y="189"/>
      <point x="731" y="103" type="curve" smooth="yes"/>
      <point x="731" y="19"/>
      <point x="637" y="-20"/>
      <point x="516" y="-20" type="curve" smooth="yes"/>
      <point x="364" y="-20"/>
      <point x="190" y="55"/>
      <point x="117" y="130" type="curve"/>
      <point x="132" y="130" type="line"/>
      <point x="132" y="-20" type="line"/>
      <point x="109" y="-20" type="line"/>
      <point x="109" y="168" type="line"/>
      <point x="205" y="64"/>
      <point x="388" y="3"/>
      <point x="517" y="3" type="curve" smooth="yes"/>
      <point x="621" y="3"/>
      <point x="707" y="32"/>
      <point x="707" y="103" type="curve" smooth="yes"/>
      <point x="707" y="172"/>
      <point x="619" y="203"/>
      <point x="413" y="220" type="curve" smooth="yes"/>
      <point x="188" y="239"/>
      <point x="111" y="289"/>
      <point x="111" y="362" type="curve" smooth="yes"/>
      <point x="111" y="445"/>
      <point x="196" y="490"/>
      <point x="328" y="490" type="curve" smooth="yes"/>
      <point x="492" y="490"/>
      <point x="615" y="413"/>
      <point x="687" y="338" type="curve"/>
      <point x="673" y="338" type="line"/>
      <point x="673" y="490" type="line"/>
      <point x="696" y="490" type="line"/>
      <point x="696" y="301" type="line"/>
      <point x="599" y="404"/>
      <point x="473" y="467"/>
      <point x="326" y="467" type="curve" smooth="yes"/>
    </contour>
  </outline>
</glyph>
<glyph name="percent" format="1">
  <advance width="966"/>
  <unicode hex="0025"/>
  <outline>
    <contour>
      <point x="798" y="490" type="line"/>
      <point x="782" y="505" type="line"/>
      <point x="163" y="-20" type="line"/>
      <point x="179" y="-35" type="line"/>
    </contour>
    <contour>
      <point x="127" y="491"/>
      <point x="60" y="443"/>
      <point x="60" y="366" type="curve"/>
      <point x="60" y="292"/>
      <point x="127" y="240"/>
      <point x="216" y="240" type="curve"/>
      <point x="319" y="240"/>
      <point x="381" y="292"/>
      <point x="381" y="366" type="curve"/>
      <point x="381" y="443"/>
      <point x="319" y="491"/>
      <point x="216" y="491" type="curve"/>
    </contour>
    <contour>
      <point x="307" y="469"/>
      <point x="358" y="428"/>
      <point x="358" y="366" type="curve"/>
      <point x="358" y="306"/>
      <point x="307" y="262"/>
      <point x="216" y="262" type="curve"/>
      <point x="138" y="262"/>
      <point x="83" y="306"/>
      <point x="83" y="366" type="curve"/>
      <point x="83" y="428"/>
      <point x="138" y="469"/>
      <point x="216" y="469" type="curve"/>
    </contour>
    <contour>
      <point x="839" y="-20"/>
      <point x="906" y="28"/>
      <point x="906" y="105" type="curve"/>
      <point x="906" y="179"/>
      <point x="839" y="231"/>
      <point x="740" y="231" type="curve"/>
      <point x="637" y="231"/>
      <point x="575" y="179"/>
      <point x="575" y="105" type="curve"/>
      <point x="575" y="28"/>
      <point x="637" y="-20"/>
      <point x="740" y="-20" type="curve"/>
    </contour>
    <contour>
      <point x="649" y="2"/>
      <point x="598" y="43"/>
      <point x="598" y="105" type="curve"/>
      <point x="598" y="165"/>
      <point x="649" y="209"/>
      <point x="740" y="209" type="curve"/>
      <point x="828" y="209"/>
      <point x="883" y="165"/>
      <point x="883" y="105" type="curve"/>
      <point x="883" y="43"/>
      <point x="828" y="2"/>
      <point x="740" y="2" type="curve"/>
    </contour>
  </outline>
</glyph>
<glyph name="ampersand" format="1">
  <advance width="735"/>
  <unicode hex="0026"/>
  <outline>
    <contour>
      <point x="664" y="335" type="line"/>
      <point x="689" y="314"/>
      <point x="711" y="272"/>
      <point x="711" y="209" type="curve" smooth="yes"/>
      <point x="711" y="85"/>
      <point x="560" y="-51"/>
      <point x="314" y="-52" type="curve" smooth="yes"/>
      <point x="129" y="-53"/>
      <point x="21" y="8"/>
      <point x="21" y="108" type="curve" smooth="yes"/>
      <point x="21" y="201"/>
      <point x="99" y="240"/>
      <point x="290" y="274" type="curve" smooth="yes"/>
      <point x="420" y="297"/>
      <point x="510" y="343"/>
      <point x="510" y="415" type="curve" smooth="yes"/>
      <point x="510" y="461"/>
      <point x="476" y="497"/>
      <point x="419" y="497" type="curve" smooth="yes"/>
      <point x="350" y="497"/>
      <point x="288" y="437"/>
      <point x="288" y="331" type="curve" smooth="yes"/>
      <point x="288" y="104"/>
      <point x="575" y="-216"/>
      <point x="853" y="-216" type="curve" smooth="yes"/>
      <point x="1023" y="-216"/>
      <point x="1140" y="-158"/>
      <point x="1210" y="-57" type="curve"/>
      <point x="1225" y="-74" type="line"/>
      <point x="1147" y="-183"/>
      <point x="1026" y="-239"/>
      <point x="853" y="-239" type="curve" smooth="yes"/>
      <point x="562" y="-239"/>
      <point x="265" y="83"/>
      <point x="265" y="325" type="curve" smooth="yes"/>
      <point x="265" y="437"/>
      <point x="327" y="518"/>
      <point x="419" y="518" type="curve" smooth="yes"/>
      <point x="493" y="518"/>
      <point x="532" y="470"/>
      <point x="532" y="419" type="curve" smooth="yes"/>
      <point x="532" y="326"/>
      <point x="437" y="279"/>
      <point x="294" y="251" type="curve" smooth="yes"/>
      <point x="117" y="218"/>
      <point x="45" y="188"/>
      <point x="45" y="108" type="curve" smooth="yes"/>
      <point x="45" y="23"/>
      <point x="129" y="-29"/>
      <point x="314" y="-29" type="curve" smooth="yes"/>
      <point x="551" y="-29"/>
      <point x="688" y="99"/>
      <point x="688" y="210" type="curve" smooth="yes"/>
      <point x="688" y="263"/>
      <point x="674" y="294"/>
      <point x="649" y="318" type="curve"/>
    </contour>
  </outline>
</glyph>
<glyph name="parenleft" format="1">
  <advance width="334"/>
  <unicode hex="0028"/>
  <outline>
    <contour>
      <point x="84" y="49"/>
      <point x="214" y="-64"/>
      <point x="298" y="-109" type="curve"/>
      <point x="306" y="-90" type="line"/>
      <point x="233" y="-46"/>
      <point x="109" y="57"/>
      <point x="109" y="245" type="curve"/>
      <point x="109" y="433"/>
      <point x="233" y="536"/>
      <point x="306" y="580" type="curve"/>
      <point x="298" y="599" type="line"/>
      <point x="214" y="554"/>
      <point x="84" y="441"/>
      <point x="84" y="245" type="curve"/>
    </contour>
  </outline>
</glyph>
<glyph name="asterisk" format="1">
  <advance width="331"/>
  <unicode hex="002A"/>
  <outline>
    <contour>
      <point x="137" y="553"/>
      <point x="153" y="515"/>
      <point x="156" y="485" type="curve" smooth="yes"/>
      <point x="158" y="461" type="line"/>
      <point x="172" y="461" type="line"/>
      <point x="174" y="485" type="line" smooth="yes"/>
      <point x="177" y="514"/>
      <point x="195" y="553"/>
      <point x="195" y="568" type="curve" smooth="yes"/>
      <point x="195" y="581"/>
      <point x="185" y="593"/>
      <point x="166" y="594" type="curve"/>
      <point x="145" y="593"/>
      <point x="137" y="581"/>
      <point x="137" y="568" type="curve" smooth="yes"/>
    </contour>
    <contour>
      <point x="233" y="325"/>
      <point x="231" y="281"/>
      <point x="266" y="281" type="curve" smooth="yes"/>
      <point x="284" y="281"/>
      <point x="295" y="292"/>
      <point x="295" y="305" type="curve" smooth="yes"/>
      <point x="295" y="332"/>
      <point x="246" y="347"/>
      <point x="214" y="377" type="curve" smooth="yes"/>
      <point x="195" y="395" type="line"/>
      <point x="185" y="388" type="line"/>
      <point x="201" y="367" type="line" smooth="yes"/>
    </contour>
    <contour>
      <point x="99" y="281"/>
      <point x="97" y="325"/>
      <point x="129" y="367" type="curve" smooth="yes"/>
      <point x="145" y="388" type="line"/>
      <point x="136" y="395" type="line"/>
      <point x="115" y="377" type="line" smooth="yes"/>
      <point x="85" y="347"/>
      <point x="35" y="332"/>
      <point x="35" y="305" type="curve" smooth="yes"/>
      <point x="35" y="292"/>
      <point x="47" y="281"/>
      <point x="64" y="281" type="curve" smooth="yes"/>
    </contour>
    <contour>
      <point x="66" y="458"/>
      <point x="35" y="491"/>
      <point x="9" y="491" type="curve" smooth="yes"/>
      <point x="-8" y="491"/>
      <point x="-19" y="480"/>
      <point x="-19" y="465" type="curve" smooth="yes"/>
      <point x="-19" y="428"/>
      <point x="39" y="443"/>
      <point x="97" y="431" type="curve" smooth="yes"/>
      <point x="125" y="425" type="line"/>
      <point x="128" y="436" type="line"/>
      <point x="104" y="445" type="line" smooth="yes"/>
    </contour>
    <contour>
      <point x="202" y="436" type="line"/>
      <point x="206" y="425" type="line"/>
      <point x="233" y="431" type="line" smooth="yes"/>
      <point x="292" y="443"/>
      <point x="349" y="428"/>
      <point x="349" y="465" type="curve" smooth="yes"/>
      <point x="349" y="480"/>
      <point x="338" y="491"/>
      <point x="321" y="491" type="curve" smooth="yes"/>
      <point x="295" y="491"/>
      <point x="265" y="458"/>
      <point x="227" y="445" type="curve" smooth="yes"/>
    </contour>
  </outline>
</glyph>
<glyph name="plus" format="1">
  <advance width="637"/>
  <unicode hex="002B"/>
  <outline>
    <contour>
      <point x="306" y="43" type="line"/>
      <point x="331" y="43" type="line"/>
      <point x="331" y="427" type="line"/>
      <point x="306" y="427" type="line"/>
    </contour>
    <contour>
      <point x="70" y="247" type="line"/>
      <point x="70" y="224" type="line"/>
      <point x="567" y="224" type="line"/>
      <point x="567" y="247" type="line"/>
    </contour>
  </outline>
</glyph>
<glyph name="period" format="1">
  <advance width="246"/>
  <unicode hex="002E"/>
  <outline>
    <contour>
      <point x="92" y="44"/>
      <point x="74" y="31"/>
      <point x="74" y="12" type="curve"/>
      <point x="74" y="-6"/>
      <point x="92" y="-20"/>
      <point x="123" y="-20" type="curve"/>
      <point x="155" y="-20"/>
      <point x="172" y="-6"/>
      <point x="172" y="12" type="curve"/>
      <point x="172" y="31"/>
      <point x="155" y="44"/>
      <point x="123" y="44" type="curve"/>
    </contour>
  </outline>
</glyph>
<glyph name="one" format="1">
  <advance width="512"/>
  <unicode hex="0031"/>
  <outline>
    <contour>
      <point x="272" y="0" type="line"/>
      <point x="296" y="0" type="line"/>
      <point x="296" y="490" type="line"/>
      <point x="272" y="490" type="line"/>
    </contour>
    <contour>
      <point x="74" y="23" type="line"/>
      <point x="74" y="0" type="line"/>
      <point x="477" y="0" type="line"/>
      <point x="477" y="23" type="line"/>
    </contour>
    <contour>
      <point x="79" y="346" type="line"/>
      <point x="178" y="361"/>
      <point x="264" y="396"/>
      <point x="291" y="485" type="curve"/>
      <point x="272" y="490" type="line"/>
      <point x="245" y="414"/>
      <point x="163" y="381"/>
      <point x="75" y="371" type="curve"/>
    </contour>
  </outline>
</glyph>
<glyph name="four" format="1">
  <advance width="663"/>
  <unicode hex="0034"/>
  <outline>
    <contour>
      <point x="495" y="490" type="line"/>
      <point x="457" y="490" type="line"/>
      <point x="10" y="148" type="line"/>
      <point x="40" y="140" type="line"/>
    </contour>
    <contour>
      <point x="653" y="125" type="line"/>
      <point x="653" y="148" type="line"/>
      <point x="10" y="148" type="line"/>
      <point x="10" y="125" type="line"/>
    </contour>
    <contour>
      <point x="470" y="-20" type="line"/>
      <point x="495" y="-20" type="line"/>
      <point x="495" y="490" type="line"/>
      <point x="470" y="490" type="line"/>
    </contour>
  </outline>
</glyph>
<glyph name="seven" format="1">
  <advance width="642"/>
  <unicode hex="0037"/>
  <outline>
    <contour>
      <point x="207" y="0" type="line"/>
      <point x="240" y="0" type="line"/>
      <point x="652" y="447" type="line"/>
      <point x="624" y="453" type="line"/>
    </contour>
    <contour>
      <point x="49" y="470" type="line"/>
      <point x="49" y="298" type="line"/>
      <point x="73" y="298" type="line"/>
      <point x="73" y="447" type="line"/>
      <point x="652" y="447" type="line"/>
      <point x="652" y="470" type="line"/>
    </contour>
  </outline>
</glyph>
<glyph name="greater" format="1">
  <advance width="564"/>
  <unicode hex="003E"/>
  <outline>
    <contour>
      <point x="524" y="237" type="line"/>
      <point x="497" y="244" type="line"/>
      <point x="70" y="72" type="line"/>
      <point x="70" y="47" type="line"/>
      <point x="524" y="234" type="line"/>
    </contour>
    <contour>
      <point x="524" y="237" type="line"/>
      <point x="70" y="423" type="line"/>
      <point x="70" y="398" type="line"/>
      <point x="497" y="227" type="line"/>
      <point x="524" y="234" type="line"/>
    </contour>
  </outline>
</glyph>
<glyph name="at" format="1">
  <advance width="926"/>
  <unicode hex="0040"/>
  <outline>
    <contour>
      <point x="477" y="36"/>
      <point x="562" y="58"/>
      <point x="641" y="98" type="curve"/>
      <point x="641" y="120" type="line"/>
      <point x="559" y="82"/>
      <point x="476" y="59"/>
      <point x="396" y="59" type="curve" smooth="yes"/>
      <point x="329" y="59"/>
      <point x="270" y="78"/>
      <point x="270" y="119" type="curve" smooth="yes"/>
      <point x="270" y="168"/>
      <point x="345" y="183"/>
      <point x="428" y="183" type="curve" smooth="yes"/>
      <point x="504" y="183"/>
      <point x="578" y="171"/>
      <point x="641" y="162" type="curve"/>
      <point x="641" y="185" type="line"/>
      <point x="578" y="195"/>
      <point x="505" y="206"/>
      <point x="430" y="206" type="curve" smooth="yes"/>
      <point x="321" y="206"/>
      <point x="246" y="180"/>
      <point x="246" y="119" type="curve" smooth="yes"/>
      <point x="246" y="65"/>
      <point x="309" y="36"/>
      <point x="396" y="36" type="curve" smooth="yes"/>
    </contour>
    <contour>
      <point x="610" y="-80"/>
      <point x="528" y="-117"/>
      <point x="398" y="-117" type="curve" smooth="yes"/>
      <point x="240" y="-117"/>
      <point x="85" y="-27"/>
      <point x="85" y="170" type="curve" smooth="yes"/>
      <point x="85" y="349"/>
      <point x="244" y="492"/>
      <point x="477" y="492" type="curve" smooth="yes"/>
      <point x="702" y="492"/>
      <point x="841" y="362"/>
      <point x="841" y="206" type="curve" smooth="yes"/>
      <point x="841" y="105"/>
      <point x="782" y="59"/>
      <point x="729" y="59" type="curve" smooth="yes"/>
      <point x="680" y="59"/>
      <point x="653" y="89"/>
      <point x="653" y="131" type="curve" smooth="yes"/>
      <point x="653" y="203" type="line" smooth="yes"/>
      <point x="653" y="280"/>
      <point x="601" y="331"/>
      <point x="483" y="331" type="curve" smooth="yes"/>
      <point x="410" y="331"/>
      <point x="336" y="314"/>
      <point x="263" y="291" type="curve"/>
      <point x="263" y="266" type="line"/>
      <point x="337" y="290"/>
      <point x="408" y="308"/>
      <point x="483" y="308" type="curve" smooth="yes"/>
      <point x="584" y="308"/>
      <point x="631" y="262"/>
      <point x="631" y="203" type="curve" smooth="yes"/>
      <point x="631" y="131" type="line" smooth="yes"/>
      <point x="631" y="77"/>
      <point x="664" y="36"/>
      <point x="729" y="36" type="curve" smooth="yes"/>
      <point x="789" y="36"/>
      <point x="866" y="88"/>
      <point x="866" y="206" type="curve" smooth="yes"/>
      <point x="866" y="382"/>
      <point x="713" y="515"/>
      <point x="477" y="515" type="curve" smooth="yes"/>
      <point x="233" y="515"/>
      <point x="60" y="367"/>
      <point x="60" y="170" type="curve" smooth="yes"/>
      <point x="60" y="-40"/>
      <point x="230" y="-141"/>
      <point x="398" y="-141" type="curve" smooth="yes"/>
      <point x="531" y="-141"/>
      <point x="619" y="-101"/>
      <point x="670" y="-74" type="curve"/>
      <point x="661" y="-53" type="line"/>
    </contour>
  </outline>
</glyph>
<glyph name="A" format="1">
  <advance width="999"/>
  <unicode hex="0041"/>
  <outline>
    <contour>
      <point x="1016" y="0" type="line"/>
      <point x="1016" y="23" type="line"/>
      <point x="678" y="23" type="line"/>
      <point x="678" y="0" type="line"/>
    </contour>
    <contour>
      <point x="321" y="0" type="line"/>
      <point x="321" y="23" type="line"/>
      <point x="-18" y="23" type="line"/>
      <point x="-18" y="0" type="line"/>
    </contour>
    <contour>
      <point x="701" y="207" type="line"/>
      <point x="295" y="207" type="line"/>
      <point x="277" y="184" type="line"/>
      <point x="718" y="184" type="line"/>
    </contour>
    <contour>
      <point x="687" y="467" type="line"/>
      <point x="687" y="490" type="line"/>
      <point x="311" y="490" type="line"/>
      <point x="311" y="467" type="line"/>
    </contour>
    <contour>
      <point x="137" y="13" type="line"/>
      <point x="166" y="13" type="line"/>
      <point x="501" y="472" type="line"/>
      <point x="498" y="472" type="line"/>
      <point x="833" y="13" type="line"/>
      <point x="862" y="13" type="line"/>
      <point x="518" y="480" type="line" smooth="yes"/>
      <point x="480" y="480" type="line"/>
    </contour>
    <contour>
      <point x="899" y="10" type="move" name="ogonek"/>
    </contour>
    <contour>
      <point x="500" y="0" type="move" name="bottom"/>
    </contour>
    <contour>
      <point x="501" y="490" type="move" name="top"/>
    </contour>
  </outline>
</glyph>
<glyph name="B" format="1">
  <advance width="923"/>
  <unicode hex="0042"/>
  <outline>
    <contour>
      <point x="263" y="14" type="line"/>
      <point x="263" y="478" type="line"/>
      <point x="238" y="478" type="line"/>
      <point x="238" y="14" type="line"/>
    </contour>
    <contour>
      <point x="664" y="247" type="line"/>
      <point x="775" y="247"/>
      <point x="828" y="300"/>
      <point x="828" y="369" type="curve" smooth="yes"/>
      <point x="828" y="439"/>
      <point x="768" y="490"/>
      <point x="667" y="490" type="curve" smooth="yes"/>
      <point x="56" y="490" type="line"/>
      <point x="56" y="467" type="line"/>
      <point x="664" y="467" type="line" smooth="yes"/>
      <point x="743" y="467"/>
      <point x="803" y="435"/>
      <point x="803" y="369" type="curve" smooth="yes"/>
      <point x="803" y="301"/>
      <point x="745" y="263"/>
      <point x="661" y="263" type="curve" smooth="yes"/>
      <point x="254" y="263" type="line"/>
      <point x="254" y="240" type="line"/>
      <point x="656" y="239" type="line" smooth="yes"/>
      <point x="755" y="239"/>
      <point x="837" y="207"/>
      <point x="837" y="129" type="curve" smooth="yes"/>
      <point x="837" y="55"/>
      <point x="769" y="23"/>
      <point x="667" y="23" type="curve" smooth="yes"/>
      <point x="56" y="23" type="line"/>
      <point x="56" y="0" type="line"/>
      <point x="673" y="0" type="line" smooth="yes"/>
      <point x="790" y="0"/>
      <point x="862" y="45"/>
      <point x="862" y="128" type="curve" smooth="yes"/>
      <point x="862" y="216"/>
      <point x="781" y="255"/>
      <point x="664" y="255" type="curve"/>
    </contour>
    <contour>
      <point x="462" y="490" type="move" name="top"/>
    </contour>
    <contour>
      <point x="462" y="0" type="move" name="bottom"/>
    </contour>
  </outline>
</glyph>
<glyph name="C" format="1">
  <advance width="858"/>
  <unicode hex="0043"/>
  <outline>
    <contour>
      <point x="794" y="159" type="line"/>
      <point x="747" y="76"/>
      <point x="640" y="-20"/>
      <point x="426" y="-20" type="curve"/>
      <point x="234" y="-20"/>
      <point x="70" y="79"/>
      <point x="70" y="249" type="curve"/>
      <point x="70" y="419"/>
      <point x="241" y="517"/>
      <point x="434" y="517" type="curve"/>
      <point x="598" y="517"/>
      <point x="716" y="437"/>
      <point x="786" y="338" type="curve"/>
      <point x="769" y="338" type="line"/>
      <point x="769" y="517" type="line"/>
      <point x="792" y="517" type="line"/>
      <point x="792" y="301" type="line"/>
      <point x="690" y="437"/>
      <point x="573" y="494"/>
      <point x="434" y="494" type="curve"/>
      <point x="249" y="494"/>
      <point x="95" y="401"/>
      <point x="95" y="249" type="curve"/>
      <point x="95" y="97"/>
      <point x="244" y="3"/>
      <point x="426" y="3" type="curve"/>
      <point x="624" y="3"/>
      <point x="734" y="98"/>
      <point x="774" y="172" type="curve"/>
    </contour>
    <contour>
      <point x="429" y="510" type="move" name="top"/>
    </contour>
    <contour>
      <point x="429" y="-10" type="move" name="bottom"/>
    </contour>
  </outline>
</glyph>
<glyph name="F" format="1">
  <advance width="897"/>
  <unicode hex="0046"/>
  <outline>
    <contour>
      <point x="603" y="225" type="line"/>
      <point x="603" y="248" type="line"/>
      <point x="260" y="248" type="line"/>
      <point x="260" y="225" type="line"/>
    </contour>
    <contour>
      <point x="615" y="112" type="line"/>
      <point x="615" y="353" type="line"/>
      <point x="591" y="353" type="line"/>
      <point x="591" y="112" type="line"/>
    </contour>
    <contour>
      <point x="263" y="13" type="line"/>
      <point x="263" y="477" type="line"/>
      <point x="238" y="477" type="line"/>
      <point x="238" y="13" type="line"/>
    </contour>
    <contour>
      <point x="455" y="0" type="line"/>
      <point x="455" y="23" type="line"/>
      <point x="56" y="23" type="line"/>
      <point x="56" y="0" type="line"/>
    </contour>
    <contour>
      <point x="838" y="467" type="line"/>
      <point x="838" y="307" type="line"/>
      <point x="862" y="307" type="line"/>
      <point x="862" y="490" type="line"/>
      <point x="56" y="490" type="line"/>
      <point x="56" y="467" type="line"/>
    </contour>
    <contour>
      <point x="449" y="490" type="move" name="top"/>
    </contour>
    <contour>
      <point x="449" y="0" type="move" name="bottom"/>
    </contour>
  </outline>
</glyph>
<glyph name="G" format="1">
  <advance width="858"/>
  <unicode hex="0047"/>
  <outline>
    <contour>
      <point x="241" y="517"/>
      <point x="70" y="418"/>
      <point x="70" y="248" type="curve"/>
      <point x="70" y="79"/>
      <point x="234" y="-20"/>
      <point x="426" y="-20" type="curve"/>
      <point x="637" y="-20"/>
      <point x="793" y="80"/>
      <point x="799" y="243" type="curve"/>
      <point x="774" y="227" type="line"/>
      <point x="764" y="112"/>
      <point x="652" y="3"/>
      <point x="426" y="3" type="curve"/>
      <point x="244" y="3"/>
      <point x="95" y="97"/>
      <point x="95" y="248" type="curve"/>
      <point x="95" y="400"/>
      <point x="249" y="494"/>
      <point x="434" y="494" type="curve"/>
      <point x="566" y="494"/>
      <point x="689" y="448"/>
      <point x="791" y="311" type="curve"/>
      <point x="791" y="490" type="line"/>
      <point x="768" y="490" type="line"/>
      <point x="768" y="347" type="line"/>
      <point x="785" y="347" type="line"/>
      <point x="715" y="444"/>
      <point x="605" y="517"/>
      <point x="434" y="517" type="curve"/>
    </contour>
    <contour>
      <point x="422" y="243" type="line"/>
      <point x="422" y="220" type="line"/>
      <point x="792" y="220" type="line"/>
      <point x="799" y="243" type="line"/>
    </contour>
    <contour>
      <point x="429" y="520" type="move" name="top"/>
    </contour>
    <contour>
      <point x="429" y="-10" type="move" name="bottom"/>
    </contour>
  </outline>
</glyph>
<glyph name="I" format="1">
  <advance width="521"/>
  <unicode hex="0049"/>
  <outline>
    <contour>
      <point x="465" y="0" type="line" smooth="yes"/>
      <point x="465" y="23" type="line" smooth="yes"/>
      <point x="56" y="23" type="line" smooth="yes"/>
      <point x="56" y="0" type="line" smooth="yes"/>
    </contour>
    <contour>
      <point x="248" y="477" type="line" smooth="yes"/>
      <point x="248" y="13" type="line" smooth="yes"/>
      <point x="273" y="13" type="line" smooth="yes"/>
      <point x="273" y="477" type="line" smooth="yes"/>
    </contour>
    <contour>
      <point x="56" y="490" type="line" smooth="yes"/>
      <point x="56" y="467" type="line" smooth="yes"/>
      <point x="465" y="467" type="line" smooth="yes"/>
      <point x="465" y="490" type="line" smooth="yes"/>
    </contour>
    <contour>
      <point x="455" y="11" type="move" name="ogonek"/>
    </contour>
    <contour>
      <point x="261" y="0" type="move" name="bottom"/>
    </contour>
    <contour>
      <point x="261" y="490" type="move" name="top"/>
    </contour>
  </outline>
</glyph>
<glyph name="J" format="1">
  <advance width="643"/>
  <unicode hex="004A"/>
  <outline>
    <contour>
      <point x="615" y="467" type="line"/>
      <point x="615" y="490" type="line"/>
      <point x="190" y="490" type="line"/>
      <point x="190" y="467" type="line"/>
    </contour>
    <contour>
      <point x="4" y="101" type="line"/>
      <point x="43" y="45"/>
      <point x="115" y="-20"/>
      <point x="233" y="-20" type="curve" smooth="yes"/>
      <point x="365" y="-20"/>
      <point x="455" y="55"/>
      <point x="455" y="176" type="curve" smooth="yes"/>
      <point x="455" y="477" type="line"/>
      <point x="430" y="477" type="line"/>
      <point x="430" y="176" type="line" smooth="yes"/>
      <point x="430" y="58"/>
      <point x="339" y="3"/>
      <point x="233" y="3" type="curve" smooth="yes"/>
      <point x="132" y="3"/>
      <point x="61" y="62"/>
      <point x="21" y="117" type="curve"/>
    </contour>
    <contour>
      <point x="322" y="490" type="move" name="top"/>
    </contour>
    <contour>
      <point x="322" y="0" type="move" name="bottom"/>
    </contour>
  </outline>
</glyph>
<glyph name="L" format="1">
  <advance width="824"/>
  <unicode hex="004C"/>
  <outline>
    <contour>
      <point x="238" y="13" type="line"/>
      <point x="263" y="13" type="line"/>
      <point x="263" y="477" type="line"/>
      <point x="238" y="477" type="line"/>
    </contour>
    <contour>
      <point x="56" y="467" type="line"/>
      <point x="455" y="467" type="line"/>
      <point x="455" y="490" type="line"/>
      <point x="56" y="490" type="line"/>
    </contour>
    <contour>
      <point x="789" y="0" type="line"/>
      <point x="789" y="186" type="line"/>
      <point x="764" y="186" type="line"/>
      <point x="764" y="23" type="line"/>
      <point x="56" y="23" type="line"/>
      <point x="56" y="0" type="line"/>
    </contour>
    <contour>
      <point x="412" y="0" type="move" name="bottom"/>
    </contour>
    <contour>
      <point x="412" y="490" type="move" name="top"/>
    </contour>
    <contour>
      <point x="804" y="490" type="move" name="topright"/>
    </contour>
    <contour>
      <point x="412" y="245" type="move" name="center"/>
    </contour>
  </outline>
</glyph>
<glyph name="M" format="1">
  <advance width="1227"/>
  <unicode hex="004D"/>
  <outline>
    <contour>
      <point x="998" y="490" type="line"/>
      <point x="969" y="490" type="line"/>
      <point x="614" y="11" type="line"/>
      <point x="258" y="490" type="line"/>
      <point x="227" y="490" type="line"/>
      <point x="614" y="-27" type="line"/>
    </contour>
    <contour>
      <point x="395" y="0" type="line"/>
      <point x="395" y="23" type="line"/>
      <point x="56" y="23" type="line"/>
      <point x="56" y="0" type="line"/>
    </contour>
    <contour>
      <point x="258" y="12" type="line"/>
      <point x="258" y="477" type="line"/>
      <point x="233" y="477" type="line"/>
      <point x="233" y="12" type="line"/>
    </contour>
    <contour>
      <point x="258" y="467" type="line"/>
      <point x="258" y="490" type="line"/>
      <point x="56" y="490" type="line"/>
      <point x="56" y="467" type="line"/>
    </contour>
    <contour>
      <point x="1171" y="0" type="line"/>
      <point x="1171" y="23" type="line"/>
      <point x="832" y="23" type="line"/>
      <point x="832" y="0" type="line"/>
    </contour>
    <contour>
      <point x="994" y="12" type="line"/>
      <point x="994" y="477" type="line"/>
      <point x="969" y="477" type="line"/>
      <point x="969" y="12" type="line"/>
    </contour>
    <contour>
      <point x="1171" y="467" type="line"/>
      <point x="1171" y="490" type="line"/>
      <point x="969" y="490" type="line"/>
      <point x="969" y="467" type="line"/>
    </contour>
    <contour>
      <point x="614" y="490" type="move" name="top"/>
    </contour>
    <contour>
      <point x="614" y="0" type="move" name="bottom"/>
    </contour>
  </outline>
</glyph>
<glyph name="N" format="1">
  <advance width="1100"/>
  <unicode hex="004E"/>
  <outline>
    <contour>
      <point x="262" y="12" type="line"/>
      <point x="262" y="490" type="line"/>
      <point x="237" y="490" type="line"/>
      <point x="237" y="12" type="line"/>
    </contour>
    <contour>
      <point x="218" y="490" type="line"/>
      <point x="909" y="-26" type="line"/>
      <point x="909" y="477" type="line"/>
      <point x="884" y="477" type="line"/>
      <point x="884" y="24" type="line"/>
      <point x="262" y="490" type="line"/>
    </contour>
    <contour>
      <point x="262" y="490" type="line"/>
      <point x="56" y="490" type="line"/>
      <point x="56" y="467" type="line"/>
      <point x="262" y="467" type="line"/>
    </contour>
    <contour>
      <point x="1090" y="467" type="line"/>
      <point x="1090" y="490" type="line"/>
      <point x="704" y="490" type="line"/>
      <point x="704" y="467" type="line"/>
    </contour>
    <contour>
      <point x="56" y="23" type="line"/>
      <point x="56" y="0" type="line"/>
      <point x="442" y="0" type="line"/>
      <point x="442" y="23" type="line"/>
    </contour>
    <contour>
      <point x="550" y="490" type="move" name="top"/>
    </contour>
    <contour>
      <point x="550" y="0" type="move" name="bottom"/>
    </contour>
  </outline>
</glyph>
<glyph name="O" format="1">
  <advance width="906"/>
  <unicode hex="004F"/>
  <outline>
    <contour>
      <point x="669" y="-20"/>
      <point x="836" y="78"/>
      <point x="836" y="248" type="curve"/>
      <point x="836" y="417"/>
      <point x="669" y="516"/>
      <point x="453" y="516" type="curve"/>
      <point x="237" y="516"/>
      <point x="70" y="417"/>
      <point x="70" y="248" type="curve"/>
      <point x="70" y="78"/>
      <point x="237" y="-20"/>
      <point x="453" y="-20" type="curve"/>
    </contour>
    <contour>
      <point x="247" y="3"/>
      <point x="95" y="96"/>
      <point x="95" y="248" type="curve"/>
      <point x="95" y="400"/>
      <point x="247" y="493"/>
      <point x="453" y="493" type="curve"/>
      <point x="658" y="493"/>
      <point x="811" y="400"/>
      <point x="811" y="248" type="curve"/>
      <point x="811" y="96"/>
      <point x="658" y="3"/>
      <point x="453" y="3" type="curve"/>
    </contour>
    <contour>
      <point x="453" y="-20" type="move" name="bottom"/>
    </contour>
    <contour>
      <point x="455" y="-8" type="move" name="ogonek"/>
    </contour>
    <contour>
      <point x="453" y="510" type="move" name="top"/>
    </contour>
    <contour>
      <point x="886" y="490" type="move" name="topright"/>
    </contour>
    <contour>
      <point x="453" y="245" type="move" name="center"/>
    </contour>
  </outline>
</glyph>
<glyph name="Q" format="1">
  <advance width="932"/>
  <unicode hex="0051"/>
  <outline>
    <contour>
      <point x="874" y="-9" type="line"/>
      <point x="864" y="-87"/>
      <point x="808" y="-135"/>
      <point x="731" y="-135" type="curve" smooth="yes"/>
      <point x="646" y="-135"/>
      <point x="588" y="-71"/>
      <point x="510" y="23" type="curve" smooth="yes"/>
      <point x="417" y="134"/>
      <point x="350" y="193"/>
      <point x="174" y="193" type="curve" smooth="yes"/>
      <point x="93" y="193" type="line"/>
      <point x="93" y="170" type="line"/>
      <point x="174" y="170" type="line" smooth="yes"/>
      <point x="336" y="170"/>
      <point x="404" y="113"/>
      <point x="485" y="17" type="curve" smooth="yes"/>
      <point x="575" y="-93"/>
      <point x="634" y="-158"/>
      <point x="731" y="-158" type="curve" smooth="yes"/>
      <point x="823" y="-158"/>
      <point x="886" y="-99"/>
      <point x="897" y="-13" type="curve"/>
    </contour>
    <contour>
      <point x="669" y="-20"/>
      <point x="836" y="78"/>
      <point x="836" y="248" type="curve"/>
      <point x="836" y="417"/>
      <point x="669" y="516"/>
      <point x="453" y="516" type="curve"/>
      <point x="237" y="516"/>
      <point x="70" y="417"/>
      <point x="70" y="248" type="curve"/>
      <point x="70" y="78"/>
      <point x="237" y="-20"/>
      <point x="453" y="-20" type="curve"/>
    </contour>
    <contour>
      <point x="247" y="3"/>
      <point x="95" y="96"/>
      <point x="95" y="248" type="curve"/>
      <point x="95" y="400"/>
      <point x="247" y="493"/>
      <point x="453" y="493" type="curve"/>
      <point x="658" y="493"/>
      <point x="811" y="400"/>
      <point x="811" y="248" type="curve"/>
      <point x="811" y="96"/>
      <point x="658" y="3"/>
      <point x="453" y="3" type="curve"/>
    </contour>
    <contour>
      <point x="451" y="520" type="move" name="top"/>
    </contour>
    <contour>
      <point x="451" y="-20" type="move" name="bottom"/>
    </contour>
  </outline>
</glyph>
<glyph name="R" format="1">
  <advance width="1047"/>
  <unicode hex="0052"/>
  <outline>
    <contour>
      <point x="452" y="209" type="line" smooth="yes"/>
      <point x="536" y="209"/>
      <point x="581" y="154"/>
      <point x="630" y="95" type="curve" smooth="yes"/>
      <point x="685" y="29"/>
      <point x="747" y="-37"/>
      <point x="839" y="-37" type="curve" smooth="yes"/>
      <point x="949" y="-37"/>
      <point x="1012" y="37"/>
      <point x="1012" y="148" type="curve" smooth="yes"/>
      <point x="1012" y="169" type="line"/>
      <point x="987" y="169" type="line"/>
      <point x="987" y="148" type="line" smooth="yes"/>
      <point x="987" y="48"/>
      <point x="931" y="-14"/>
      <point x="839" y="-14" type="curve" smooth="yes"/>
      <point x="756" y="-14"/>
      <point x="705" y="45"/>
      <point x="651" y="108" type="curve" smooth="yes"/>
      <point x="588" y="182"/>
      <point x="548" y="223"/>
      <point x="440" y="223" type="curve" smooth="yes"/>
      <point x="258" y="223" type="line"/>
      <point x="258" y="209" type="line"/>
    </contour>
    <contour>
      <point x="263" y="14" type="line"/>
      <point x="263" y="477" type="line"/>
      <point x="238" y="477" type="line"/>
      <point x="238" y="14" type="line"/>
    </contour>
    <contour>
      <point x="454" y="1" type="line"/>
      <point x="454" y="24" type="line"/>
      <point x="56" y="23" type="line"/>
      <point x="56" y="0" type="line"/>
    </contour>
    <contour>
      <point x="717" y="211" type="line" smooth="yes"/>
      <point x="841" y="211"/>
      <point x="900" y="279"/>
      <point x="900" y="348" type="curve" smooth="yes"/>
      <point x="900" y="427"/>
      <point x="840" y="490"/>
      <point x="717" y="490" type="curve" smooth="yes"/>
      <point x="56" y="490" type="line"/>
      <point x="56" y="467" type="line"/>
      <point x="717" y="467" type="line" smooth="yes"/>
      <point x="826" y="467"/>
      <point x="875" y="411"/>
      <point x="875" y="348" type="curve" smooth="yes"/>
      <point x="875" y="287"/>
      <point x="823" y="232"/>
      <point x="717" y="232" type="curve" smooth="yes"/>
      <point x="258" y="232" type="line"/>
      <point x="258" y="211" type="line"/>
    </contour>
    <contour>
      <point x="524" y="490" type="move" name="top"/>
    </contour>
    <contour>
      <point x="564" y="0" type="move" name="bottom"/>
    </contour>
  </outline>
</glyph>
<glyph name="T" format="1">
  <advance width="819"/>
  <unicode hex="0054"/>
  <outline>
    <contour>
      <point x="64" y="307" type="line"/>
      <point x="64" y="467" type="line"/>
      <point x="755" y="467" type="line"/>
      <point x="755" y="307" type="line"/>
      <point x="780" y="307" type="line"/>
      <point x="780" y="490" type="line"/>
      <point x="39" y="490" type="line"/>
      <point x="39" y="307" type="line"/>
    </contour>
    <contour>
      <point x="614" y="0" type="line"/>
      <point x="614" y="23" type="line"/>
      <point x="204" y="23" type="line"/>
      <point x="204" y="0" type="line"/>
    </contour>
    <contour>
      <point x="422" y="13" type="line"/>
      <point x="422" y="477" type="line"/>
      <point x="397" y="477" type="line"/>
      <point x="397" y="13" type="line"/>
    </contour>
    <contour>
      <point x="410" y="245" type="move" name="center"/>
    </contour>
    <contour>
      <point x="410" y="0" type="move" name="bottom"/>
    </contour>
    <contour>
      <point x="410" y="490" type="move" name="top"/>
    </contour>
  </outline>
</glyph>
<glyph name="U" format="1">
  <advance width="1023"/>
  <unicode hex="0055"/>
  <outline>
    <contour>
      <point x="407" y="467" type="line"/>
      <point x="407" y="490" type="line"/>
      <point x="14" y="490" type="line"/>
      <point x="14" y="467" type="line"/>
    </contour>
    <contour>
      <point x="705" y="-20"/>
      <point x="830" y="69"/>
      <point x="830" y="244" type="curve" smooth="yes"/>
      <point x="830" y="477" type="line"/>
      <point x="808" y="477" type="line"/>
      <point x="805" y="232" type="line" smooth="yes"/>
      <point x="803" y="79"/>
      <point x="686" y="3"/>
      <point x="512" y="3" type="curve"/>
      <point x="337" y="3"/>
      <point x="219" y="79"/>
      <point x="218" y="233" type="curve" smooth="yes"/>
      <point x="215" y="477" type="line"/>
      <point x="193" y="477" type="line"/>
      <point x="193" y="244" type="line" smooth="yes"/>
      <point x="193" y="69"/>
      <point x="319" y="-20"/>
      <point x="512" y="-20" type="curve"/>
    </contour>
    <contour>
      <point x="1009" y="490" type="line"/>
      <point x="616" y="490" type="line"/>
      <point x="616" y="467" type="line"/>
      <point x="1009" y="467" type="line"/>
    </contour>
    <contour>
      <point x="521" y="-9" type="move" name="ogonek"/>
    </contour>
    <contour>
      <point x="512" y="490" type="move" name="top"/>
    </contour>
    <contour>
      <point x="1003" y="490" type="move" name="topright"/>
    </contour>
    <contour>
      <point x="512" y="-20" type="move" name="bottom"/>
    </contour>
  </outline>
</glyph>
<glyph name="W" format="1">
  <advance width="1238"/>
  <unicode hex="0057"/>
  <outline>
    <contour>
      <point x="746" y="477" type="line"/>
      <point x="438" y="13" type="line"/>
      <point x="172" y="477" type="line"/>
      <point x="143" y="477" type="line"/>
      <point x="437" y="-31" type="line"/>
      <point x="775" y="477" type="line"/>
    </contour>
    <contour>
      <point x="-14" y="490" type="line"/>
      <point x="-14" y="468" type="line"/>
      <point x="309" y="468" type="line"/>
      <point x="309" y="490" type="line"/>
    </contour>
    <contour>
      <point x="383" y="490" type="line"/>
      <point x="383" y="468" type="line"/>
      <point x="853" y="468" type="line"/>
      <point x="853" y="490" type="line"/>
    </contour>
    <contour>
      <point x="1068" y="477" type="line"/>
      <point x="799" y="13" type="line"/>
      <point x="493" y="477" type="line"/>
      <point x="465" y="477" type="line"/>
      <point x="801" y="-31" type="line"/>
      <point x="1095" y="477" type="line"/>
    </contour>
    <contour>
      <point x="929" y="490" type="line"/>
      <point x="929" y="468" type="line"/>
      <point x="1252" y="468" type="line"/>
      <point x="1252" y="490" type="line"/>
    </contour>
    <contour>
      <point x="619" y="490" type="move" name="top"/>
    </contour>
    <contour>
      <point x="619" y="0" type="move" name="bottom"/>
    </contour>
  </outline>
</glyph>
<glyph name="Y" format="1">
  <advance width="918"/>
  <unicode hex="0059"/>
  <outline>
    <contour>
      <point x="739" y="488" type="line"/>
      <point x="451" y="165" type="line"/>
      <point x="468" y="148" type="line"/>
      <point x="751" y="465" type="line"/>
    </contour>
    <contour>
      <point x="178" y="490" type="line"/>
      <point x="166" y="465" type="line"/>
      <point x="450" y="148" type="line"/>
      <point x="470" y="165" type="line"/>
    </contour>
    <contour>
      <point x="472" y="174" type="line"/>
      <point x="447" y="174" type="line"/>
      <point x="447" y="0" type="line"/>
      <point x="472" y="0" type="line"/>
    </contour>
    <contour>
      <point x="654" y="0" type="line"/>
      <point x="654" y="23" type="line"/>
      <point x="265" y="23" type="line"/>
      <point x="265" y="0" type="line"/>
    </contour>
    <contour>
      <point x="578" y="490" type="line"/>
      <point x="578" y="467" type="line"/>
      <point x="914" y="467" type="line"/>
      <point x="914" y="490" type="line"/>
    </contour>
    <contour>
      <point x="4" y="490" type="line"/>
      <point x="4" y="467" type="line"/>
      <point x="341" y="467" type="line"/>
      <point x="341" y="490" type="line"/>
    </contour>
    <contour>
      <point x="459" y="490" type="move" name="top"/>
    </contour>
    <contour>
      <point x="459" y="0" type="move" name="bottom"/>
    </contour>
  </outline>
</glyph>
<glyph name="bracketleft" format="1">
  <advance width="336"/>
  <unicode hex="005B"/>
  <outline>
    <contour>
      <point x="84" y="-96" type="line"/>
      <point x="109" y="-96" type="line"/>
      <point x="109" y="584" type="line"/>
      <point x="84" y="584" type="line"/>
    </contour>
    <contour>
      <point x="86" y="561" type="line"/>
      <point x="308" y="561" type="line"/>
      <point x="308" y="584" type="line"/>
      <point x="86" y="584" type="line"/>
    </contour>
    <contour>
      <point x="86" y="-96" type="line"/>
      <point x="308" y="-96" type="line"/>
      <point x="308" y="-73" type="line"/>
      <point x="86" y="-73" type="line"/>
    </contour>
  </outline>
</glyph>
<glyph name="asciicircum" format="1">
  <advance width="564"/>
  <unicode hex="005E"/>
  <outline>
    <contour>
      <point x="301" y="616" type="line"/>
      <point x="294" y="594" type="line"/>
      <point x="449" y="325" type="line"/>
      <point x="476" y="325" type="line"/>
      <point x="304" y="616" type="line"/>
    </contour>
    <contour>
      <point x="301" y="616" type="line"/>
      <point x="119" y="325" type="line"/>
      <point x="146" y="325" type="line"/>
      <point x="311" y="594" type="line"/>
      <point x="304" y="616" type="line"/>
    </contour>
  </outline>
</glyph>
<glyph name="a" format="1">
  <advance width="767"/>
  <unicode hex="0061"/>
  <outline>
    <contour>
      <point x="721" y="-20"/>
      <point x="748" y="-8"/>
      <point x="772" y="9" type="curve"/>
      <point x="762" y="29" type="line"/>
      <point x="739" y="12"/>
      <point x="718" y="3"/>
      <point x="691" y="3" type="curve" smooth="yes"/>
      <point x="658" y="3"/>
      <point x="627" y="28"/>
      <point x="627" y="84" type="curve" smooth="yes"/>
      <point x="627" y="207" type="line" smooth="yes"/>
      <point x="627" y="307"/>
      <point x="552" y="377"/>
      <point x="394" y="377" type="curve" smooth="yes"/>
      <point x="295" y="377"/>
      <point x="193" y="354"/>
      <point x="92" y="322" type="curve"/>
      <point x="92" y="297" type="line"/>
      <point x="194" y="329"/>
      <point x="291" y="354"/>
      <point x="394" y="354" type="curve" smooth="yes"/>
      <point x="539" y="354"/>
      <point x="602" y="291"/>
      <point x="602" y="207" type="curve" smooth="yes"/>
      <point x="602" y="84" type="line" smooth="yes"/>
      <point x="602" y="18"/>
      <point x="639" y="-20"/>
      <point x="690" y="-20" type="curve" smooth="yes"/>
    </contour>
    <contour>
      <point x="377" y="-20"/>
      <point x="504" y="11"/>
      <point x="613" y="67" type="curve"/>
      <point x="613" y="89" type="line"/>
      <point x="499" y="35"/>
      <point x="375" y="3"/>
      <point x="267" y="3" type="curve" smooth="yes"/>
      <point x="174" y="3"/>
      <point x="95" y="28"/>
      <point x="95" y="89" type="curve"/>
      <point x="95" y="158"/>
      <point x="187" y="183"/>
      <point x="311" y="183" type="curve" smooth="yes"/>
      <point x="414" y="183"/>
      <point x="526" y="168"/>
      <point x="613" y="153" type="curve"/>
      <point x="613" y="176" type="line"/>
      <point x="526" y="191"/>
      <point x="416" y="206"/>
      <point x="295" y="206" type="curve" smooth="yes"/>
      <point x="173" y="206"/>
      <point x="70" y="174"/>
      <point x="70" y="89" type="curve"/>
      <point x="70" y="11"/>
      <point x="146" y="-20"/>
      <point x="267" y="-20" type="curve" smooth="yes"/>
    </contour>
    <contour>
      <point x="730" y="1" type="move" name="ogonek"/>
    </contour>
    <contour>
      <point x="384" y="-20" type="move" name="bottom"/>
    </contour>
    <contour>
      <point x="364" y="377" type="move" name="top"/>
    </contour>
  </outline>
</glyph>
<glyph name="b" format="1">
  <advance width="834"/>
  <unicode hex="0062"/>
  <outline>
    <contour>
      <point x="147" y="-20" type="line"/>
      <point x="172" y="-20" type="line"/>
      <point x="172" y="357" type="line"/>
      <point x="147" y="357" type="line"/>
    </contour>
    <contour>
      <point x="172" y="560" type="line"/>
      <point x="147" y="560" type="line"/>
      <point x="147" y="181" type="line"/>
      <point x="172" y="181" type="line"/>
    </contour>
    <contour>
      <point x="163" y="560" type="line"/>
      <point x="-35" y="560" type="line"/>
      <point x="-35" y="537" type="line"/>
      <point x="163" y="537" type="line"/>
    </contour>
    <contour>
      <point x="227" y="22"/>
      <point x="332" y="-20"/>
      <point x="461" y="-20" type="curve"/>
      <point x="614" y="-20"/>
      <point x="764" y="62"/>
      <point x="764" y="199" type="curve"/>
      <point x="764" y="307"/>
      <point x="669" y="376"/>
      <point x="526" y="376" type="curve"/>
      <point x="396" y="376"/>
      <point x="274" y="312"/>
      <point x="158" y="228" type="curve"/>
      <point x="158" y="205" type="line"/>
      <point x="283" y="293"/>
      <point x="412" y="353"/>
      <point x="526" y="353" type="curve"/>
      <point x="659" y="353"/>
      <point x="739" y="287"/>
      <point x="739" y="199" type="curve"/>
      <point x="739" y="80"/>
      <point x="603" y="2"/>
      <point x="461" y="3" type="curve"/>
      <point x="342" y="2"/>
      <point x="229" y="45"/>
      <point x="155" y="85" type="curve"/>
      <point x="155" y="63" type="line"/>
    </contour>
    <contour>
      <point x="417" y="377" type="move" name="top"/>
    </contour>
    <contour>
      <point x="417" y="0" type="move" name="bottom"/>
    </contour>
  </outline>
</glyph>
<glyph name="c" format="1">
  <advance width="741"/>
  <unicode hex="0063"/>
  <outline>
    <contour>
      <point x="232" y="353"/>
      <point x="95" y="290"/>
      <point x="95" y="171" type="curve" smooth="yes"/>
      <point x="95" y="72"/>
      <point x="198" y="2"/>
      <point x="345" y="3" type="curve" smooth="yes"/>
      <point x="484" y="2"/>
      <point x="590" y="45"/>
      <point x="653" y="103" type="curve"/>
      <point x="668" y="85" type="line"/>
      <point x="600" y="22"/>
      <point x="495" y="-20"/>
      <point x="345" y="-20" type="curve" smooth="yes"/>
      <point x="188" y="-20"/>
      <point x="70" y="52"/>
      <point x="70" y="171" type="curve" smooth="yes"/>
      <point x="70" y="307"/>
      <point x="222" y="376"/>
      <point x="367" y="375" type="curve" smooth="yes"/>
      <point x="491" y="375"/>
      <point x="603" y="324"/>
      <point x="654" y="261" type="curve"/>
      <point x="639" y="266" type="line"/>
      <point x="639" y="375" type="line"/>
      <point x="662" y="375" type="line"/>
      <point x="662" y="229" type="line"/>
      <point x="589" y="315"/>
      <point x="474" y="352"/>
      <point x="365" y="352" type="curve" smooth="yes"/>
    </contour>
    <contour>
      <point x="371" y="377" type="move" name="top"/>
    </contour>
    <contour>
      <point x="371" y="-20" type="move" name="bottom"/>
    </contour>
  </outline>
</glyph>
<glyph name="g" format="1">
  <advance width="711"/>
  <unicode hex="0067"/>
  <outline>
    <contour>
      <point x="501" y="118"/>
      <point x="618" y="159"/>
      <point x="618" y="248" type="curve"/>
      <point x="618" y="337"/>
      <point x="501" y="377"/>
      <point x="365" y="377" type="curve"/>
      <point x="230" y="377"/>
      <point x="113" y="337"/>
      <point x="113" y="248" type="curve"/>
      <point x="113" y="159"/>
      <point x="230" y="116"/>
      <point x="365" y="118" type="curve"/>
    </contour>
    <contour>
      <point x="242" y="141"/>
      <point x="138" y="178"/>
      <point x="138" y="248" type="curve"/>
      <point x="138" y="320"/>
      <point x="242" y="354"/>
      <point x="365" y="354" type="curve"/>
      <point x="490" y="354"/>
      <point x="595" y="320"/>
      <point x="595" y="248" type="curve"/>
      <point x="595" y="178"/>
      <point x="490" y="141"/>
      <point x="365" y="141" type="curve"/>
    </contour>
    <contour>
      <point x="532" y="-169"/>
      <point x="679" y="-125"/>
      <point x="679" y="-34" type="curve" smooth="yes"/>
      <point x="679" y="27"/>
      <point x="619" y="55"/>
      <point x="543" y="55" type="curve" smooth="yes"/>
      <point x="468" y="55"/>
      <point x="304" y="22"/>
      <point x="227" y="22" type="curve" smooth="yes"/>
      <point x="123" y="22"/>
      <point x="90" y="59"/>
      <point x="90" y="90" type="curve" smooth="yes"/>
      <point x="90" y="132"/>
      <point x="137" y="155"/>
      <point x="172" y="167" type="curve"/>
      <point x="153" y="176" type="line"/>
      <point x="118" y="166"/>
      <point x="67" y="137"/>
      <point x="67" y="87" type="curve" smooth="yes"/>
      <point x="67" y="52"/>
      <point x="97" y="0"/>
      <point x="225" y="0" type="curve" smooth="yes"/>
      <point x="305" y="0"/>
      <point x="464" y="32"/>
      <point x="543" y="32" type="curve" smooth="yes"/>
      <point x="609" y="32"/>
      <point x="655" y="13"/>
      <point x="655" y="-34" type="curve" smooth="yes"/>
      <point x="655" y="-111"/>
      <point x="517" y="-147"/>
      <point x="337" y="-147" type="curve" smooth="yes"/>
      <point x="155" y="-147"/>
      <point x="83" y="-104"/>
      <point x="83" y="-50" type="curve" smooth="yes"/>
      <point x="83" y="-18"/>
      <point x="110" y="10"/>
      <point x="143" y="21" type="curve"/>
      <point x="125" y="30" type="line"/>
      <point x="98" y="20"/>
      <point x="59" y="-11"/>
      <point x="59" y="-53" type="curve" smooth="yes"/>
      <point x="59" y="-119"/>
      <point x="141" y="-169"/>
      <point x="339" y="-169" type="curve" smooth="yes"/>
    </contour>
    <contour>
      <point x="677" y="456" type="line"/>
      <point x="612" y="453"/>
      <point x="559" y="411"/>
      <point x="545" y="335" type="curve"/>
      <point x="556" y="319" type="line"/>
      <point x="574" y="400"/>
      <point x="620" y="428"/>
      <point x="677" y="431" type="curve"/>
    </contour>
    <contour>
      <point x="356" y="387" type="move" name="top"/>
    </contour>
    <contour>
      <point x="356" y="-169" type="move" name="bottom"/>
    </contour>
  </outline>
</glyph>
<glyph name="i" format="1">
  <advance width="409"/>
  <unicode hex="0069"/>
  <outline>
    <contour>
      <point x="192" y="530"/>
      <point x="175" y="517"/>
      <point x="175" y="499" type="curve"/>
      <point x="175" y="482"/>
      <point x="192" y="469"/>
      <point x="222" y="469" type="curve"/>
      <point x="253" y="469"/>
      <point x="269" y="482"/>
      <point x="269" y="499" type="curve"/>
      <point x="269" y="517"/>
      <point x="253" y="530"/>
      <point x="222" y="530" type="curve"/>
    </contour>
    <component base="idotless"/>
  </outline>
</glyph>
<glyph name="j" format="1">
  <advance width="382"/>
  <unicode hex="006A"/>
  <outline>
    <contour>
      <point x="197" y="530"/>
      <point x="179" y="517"/>
      <point x="179" y="499" type="curve"/>
      <point x="179" y="482"/>
      <point x="197" y="469"/>
      <point x="227" y="469" type="curve"/>
      <point x="258" y="469"/>
      <point x="274" y="482"/>
      <point x="274" y="499" type="curve"/>
      <point x="274" y="517"/>
      <point x="258" y="530"/>
      <point x="227" y="530" type="curve"/>
    </contour>
    <component base="jdotless"/>
  </outline>
</glyph>
<glyph name="l" format="1">
  <advance width="379"/>
  <unicode hex="006C"/>
  <outline>
    <contour>
      <point x="190" y="0" type="line"/>
      <point x="215" y="0" type="line"/>
      <point x="215" y="560" type="line"/>
      <point x="190" y="560" type="line"/>
    </contour>
    <contour>
      <point x="10" y="560" type="line"/>
      <point x="10" y="537" type="line"/>
      <point x="215" y="537" type="line"/>
      <point x="215" y="560" type="line"/>
    </contour>
    <contour>
      <point x="10" y="0" type="line"/>
      <point x="375" y="0" type="line"/>
      <point x="375" y="23" type="line"/>
      <point x="10" y="23" type="line"/>
    </contour>
    <contour>
      <point x="190" y="0" type="move" name="bottom"/>
    </contour>
    <contour>
      <point x="190" y="560" type="move" name="top"/>
    </contour>
    <contour>
      <point x="359" y="357" type="move" name="topright"/>
    </contour>
    <contour>
      <point x="190" y="283" type="move" name="center"/>
    </contour>
  </outline>
</glyph>
<glyph name="m" format="1">
  <advance width="1209"/>
  <unicode hex="006D"/>
  <outline>
    <contour>
      <point x="222" y="0" type="line"/>
      <point x="247" y="0" type="line"/>
      <point x="247" y="357" type="line"/>
      <point x="222" y="357" type="line"/>
    </contour>
    <contour>
      <point x="40" y="23" type="line"/>
      <point x="40" y="0" type="line"/>
      <point x="408" y="0" type="line"/>
      <point x="408" y="23" type="line"/>
    </contour>
    <contour>
      <point x="40" y="357" type="line"/>
      <point x="40" y="334" type="line"/>
      <point x="247" y="334" type="line"/>
      <point x="247" y="357" type="line"/>
    </contour>
    <contour>
      <point x="375" y="377"/>
      <point x="289" y="300"/>
      <point x="234" y="221" type="curve"/>
      <point x="234" y="198" type="line"/>
      <point x="303" y="279"/>
      <point x="375" y="354"/>
      <point x="483" y="354" type="curve" smooth="yes"/>
      <point x="601" y="354"/>
      <point x="626" y="268"/>
      <point x="626" y="166" type="curve"/>
      <point x="626" y="0" type="line"/>
      <point x="650" y="0" type="line"/>
      <point x="650" y="166" type="line"/>
      <point x="650" y="288"/>
      <point x="611" y="377"/>
      <point x="483" y="377" type="curve" smooth="yes"/>
    </contour>
    <contour>
      <point x="478" y="23" type="line"/>
      <point x="478" y="0" type="line"/>
      <point x="811" y="0" type="line"/>
      <point x="811" y="23" type="line"/>
    </contour>
    <contour>
      <point x="778" y="377"/>
      <point x="692" y="300"/>
      <point x="637" y="221" type="curve"/>
      <point x="637" y="198" type="line"/>
      <point x="706" y="279"/>
      <point x="778" y="354"/>
      <point x="886" y="354" type="curve" smooth="yes"/>
      <point x="1005" y="354"/>
      <point x="1029" y="268"/>
      <point x="1029" y="166" type="curve"/>
      <point x="1029" y="0" type="line"/>
      <point x="1054" y="0" type="line"/>
      <point x="1054" y="166" type="line"/>
      <point x="1054" y="288"/>
      <point x="1014" y="377"/>
      <point x="886" y="377" type="curve" smooth="yes"/>
    </contour>
    <contour>
      <point x="881" y="23" type="line"/>
      <point x="881" y="0" type="line"/>
      <point x="1214" y="0" type="line"/>
      <point x="1214" y="23" type="line"/>
    </contour>
    <contour>
      <point x="605" y="387" type="move" name="top"/>
    </contour>
    <contour>
      <point x="605" y="0" type="move" name="bottom"/>
    </contour>
  </outline>
</glyph>
<glyph name="n" format="1">
  <advance width="918"/>
  <unicode hex="006E"/>
  <outline>
    <contour>
      <point x="222" y="0" type="line"/>
      <point x="247" y="0" type="line"/>
      <point x="247" y="357" type="line"/>
      <point x="222" y="357" type="line"/>
    </contour>
    <contour>
      <point x="40" y="23" type="line"/>
      <point x="40" y="0" type="line"/>
      <point x="408" y="0" type="line"/>
      <point x="408" y="23" type="line"/>
    </contour>
    <contour>
      <point x="40" y="357" type="line"/>
      <point x="40" y="334" type="line"/>
      <point x="247" y="334" type="line"/>
      <point x="247" y="357" type="line"/>
    </contour>
    <contour>
      <point x="421" y="377"/>
      <point x="298" y="273"/>
      <point x="234" y="221" type="curve"/>
      <point x="234" y="198" type="line"/>
      <point x="298" y="249"/>
      <point x="421" y="354"/>
      <point x="557" y="354" type="curve" smooth="yes"/>
      <point x="703" y="354"/>
      <point x="737" y="247"/>
      <point x="737" y="145" type="curve"/>
      <point x="737" y="0" type="line"/>
      <point x="762" y="0" type="line"/>
      <point x="762" y="145" type="line"/>
      <point x="762" y="267"/>
      <point x="713" y="377"/>
      <point x="557" y="377" type="curve" smooth="yes"/>
    </contour>
    <contour>
      <point x="555" y="23" type="line"/>
      <point x="555" y="0" type="line"/>
      <point x="923" y="0" type="line"/>
      <point x="923" y="23" type="line"/>
    </contour>
    <contour>
      <point x="479" y="367" type="move" name="top"/>
    </contour>
    <contour>
      <point x="489" y="0" type="move" name="bottom"/>
    </contour>
  </outline>
</glyph>
<glyph name="o" format="1">
  <advance width="779"/>
  <unicode hex="006F"/>
  <outline>
    <contour>
      <point x="568" y="-20"/>
      <point x="709" y="50"/>
      <point x="709" y="179" type="curve"/>
      <point x="709" y="312"/>
      <point x="568" y="377"/>
      <point x="389" y="377" type="curve"/>
      <point x="211" y="376"/>
      <point x="70" y="312"/>
      <point x="70" y="179" type="curve"/>
      <point x="70" y="50"/>
      <point x="211" y="-20"/>
      <point x="389" y="-20" type="curve" smooth="yes"/>
    </contour>
    <contour>
      <point x="222" y="3"/>
      <point x="95" y="66"/>
      <point x="95" y="179" type="curve"/>
      <point x="95" y="295"/>
      <point x="222" y="353"/>
      <point x="389" y="354" type="curve"/>
      <point x="557" y="354"/>
      <point x="685" y="295"/>
      <point x="685" y="179" type="curve"/>
      <point x="685" y="66"/>
      <point x="557" y="3"/>
      <point x="389" y="3" type="curve" smooth="yes"/>
    </contour>
    <contour>
      <point x="390" y="-20" type="move" name="bottom"/>
    </contour>
    <contour>
      <point x="382" y="-9" type="move" name="ogonek"/>
    </contour>
    <contour>
      <point x="390" y="387" type="move" name="top"/>
    </contour>
    <contour>
      <point x="759" y="357" type="move" name="topright"/>
    </contour>
    <contour>
      <point x="390" y="179" type="move" name="center"/>
    </contour>
  </outline>
</glyph>
<glyph name="q" format="1">
  <advance width="870"/>
  <unicode hex="0071"/>
  <outline>
    <contour>
      <point x="675" y="375" type="line"/>
      <point x="675" y="-165" type="line"/>
      <point x="700" y="-165" type="line"/>
      <point x="700" y="375" type="line"/>
    </contour>
    <contour>
      <point x="493" y="-142" type="line"/>
      <point x="493" y="-165" type="line"/>
      <point x="860" y="-165" type="line"/>
      <point x="860" y="-142" type="line"/>
    </contour>
    <contour>
      <point x="540" y="353"/>
      <point x="703" y="295"/>
      <point x="832" y="234" type="curve"/>
      <point x="832" y="258" type="line"/>
      <point x="704" y="320"/>
      <point x="551" y="376"/>
      <point x="397" y="375" type="curve"/>
      <point x="232" y="376"/>
      <point x="84" y="300"/>
      <point x="84" y="164" type="curve"/>
      <point x="84" y="48"/>
      <point x="179" y="-20"/>
      <point x="322" y="-20" type="curve"/>
      <point x="451" y="-20"/>
      <point x="574" y="44"/>
      <point x="690" y="127" type="curve"/>
      <point x="690" y="151" type="line"/>
      <point x="565" y="62"/>
      <point x="436" y="3"/>
      <point x="322" y="3" type="curve"/>
      <point x="189" y="3"/>
      <point x="109" y="69"/>
      <point x="109" y="164" type="curve"/>
      <point x="109" y="283"/>
      <point x="243" y="353"/>
      <point x="397" y="352" type="curve"/>
    </contour>
    <contour>
      <point x="435" y="387" type="move" name="top"/>
    </contour>
    <contour>
      <point x="435" y="-20" type="move" name="bottom"/>
    </contour>
  </outline>
</glyph>
<glyph name="t" format="1">
  <advance width="475"/>
  <unicode hex="0074"/>
  <outline>
    <contour>
      <point x="395" y="357" type="line"/>
      <point x="28" y="357" type="line"/>
      <point x="28" y="334" type="line"/>
      <point x="395" y="334" type="line"/>
    </contour>
    <contour>
      <point x="433" y="47" type="line"/>
      <point x="392" y="26"/>
      <point x="330" y="3"/>
      <point x="261" y="3" type="curve" smooth="yes"/>
      <point x="199" y="3"/>
      <point x="157" y="31"/>
      <point x="157" y="113" type="curve"/>
      <point x="157" y="340" type="line"/>
      <point x="157" y="347" type="line"/>
      <point x="157" y="476" type="line"/>
      <point x="132" y="476" type="line"/>
      <point x="132" y="348" type="line"/>
      <point x="132" y="342" type="line"/>
      <point x="132" y="113" type="line"/>
      <point x="132" y="17"/>
      <point x="182" y="-20"/>
      <point x="263" y="-20" type="curve" smooth="yes"/>
      <point x="333" y="-20"/>
      <point x="397" y="4"/>
      <point x="440" y="25" type="curve"/>
    </contour>
    <contour>
      <point x="268" y="-20" type="move" name="bottom"/>
    </contour>
    <contour>
      <point x="238" y="357" type="move" name="top"/>
    </contour>
    <contour>
      <point x="455" y="357" type="move" name="topright"/>
    </contour>
    <contour>
      <point x="238" y="179" type="move" name="center"/>
    </contour>
  </outline>
</glyph>
<glyph name="v" format="1">
  <advance width="783"/>
  <unicode hex="0076"/>
  <outline>
    <contour>
      <point x="10" y="357" type="line"/>
      <point x="10" y="334" type="line"/>
      <point x="283" y="334" type="line"/>
      <point x="283" y="357" type="line"/>
    </contour>
    <contour>
      <point x="499" y="357" type="line"/>
      <point x="499" y="334" type="line"/>
      <point x="773" y="334" type="line"/>
      <point x="773" y="357" type="line"/>
    </contour>
    <contour>
      <point x="655" y="348" type="line"/>
      <point x="628" y="348" type="line"/>
      <point x="390" y="8" type="line"/>
      <point x="152" y="348" type="line"/>
      <point x="122" y="348" type="line"/>
      <point x="389" y="-31" type="line"/>
    </contour>
    <contour>
      <point x="392" y="357" type="move" name="top"/>
    </contour>
    <contour>
      <point x="392" y="0" type="move" name="bottom"/>
    </contour>
  </outline>
</glyph>
<glyph name="w" format="1">
  <advance width="1043"/>
  <unicode hex="0077"/>
  <outline>
    <contour>
      <point x="14" y="357" type="line"/>
      <point x="14" y="334" type="line"/>
      <point x="266" y="334" type="line"/>
      <point x="266" y="357" type="line"/>
    </contour>
    <contour>
      <point x="353" y="357" type="line"/>
      <point x="353" y="335" type="line"/>
      <point x="690" y="335" type="line"/>
      <point x="690" y="357" type="line"/>
    </contour>
    <contour>
      <point x="776" y="357" type="line"/>
      <point x="776" y="334" type="line"/>
      <point x="1029" y="334" type="line"/>
      <point x="1029" y="357" type="line"/>
    </contour>
    <contour>
      <point x="635" y="348" type="line"/>
      <point x="608" y="348" type="line"/>
      <point x="368" y="9" type="line"/>
      <point x="156" y="348" type="line"/>
      <point x="127" y="348" type="line"/>
      <point x="365" y="-31" type="line"/>
    </contour>
    <contour>
      <point x="885" y="348" type="line"/>
      <point x="673" y="9" type="line"/>
      <point x="438" y="348" type="line"/>
      <point x="410" y="348" type="line"/>
      <point x="673" y="-31" type="line"/>
      <point x="911" y="348" type="line"/>
    </contour>
    <contour>
      <point x="522" y="357" type="move" name="top"/>
    </contour>
    <contour>
      <point x="522" y="0" type="move" name="bottom"/>
    </contour>
  </outline>
</glyph>
<glyph name="x" format="1">
  <advance width="769"/>
  <unicode hex="0078"/>
  <outline>
    <contour>
      <point x="711" y="-20"/>
      <point x="752" y="59"/>
      <point x="752" y="112" type="curve"/>
      <point x="727" y="112" type="line"/>
      <point x="727" y="55"/>
      <point x="686" y="3"/>
      <point x="618" y="3" type="curve" smooth="yes"/>
      <point x="546" y="3"/>
      <point x="493" y="71"/>
      <point x="399" y="198" type="curve" smooth="yes"/>
      <point x="320" y="305"/>
      <point x="265" y="377"/>
      <point x="171" y="377" type="curve" smooth="yes"/>
      <point x="74" y="377"/>
      <point x="32" y="298"/>
      <point x="32" y="245" type="curve"/>
      <point x="57" y="245" type="line"/>
      <point x="57" y="302"/>
      <point x="98" y="354"/>
      <point x="169" y="354" type="curve" smooth="yes"/>
      <point x="246" y="354"/>
      <point x="301" y="292"/>
      <point x="380" y="185" type="curve" smooth="yes"/>
      <point x="465" y="69"/>
      <point x="524" y="-20"/>
      <point x="617" y="-20" type="curve" smooth="yes"/>
    </contour>
    <contour>
      <point x="326" y="0" type="line"/>
      <point x="326" y="23" type="line"/>
      <point x="18" y="23" type="line"/>
      <point x="18" y="0" type="line"/>
    </contour>
    <contour>
      <point x="142" y="9" type="line"/>
      <point x="400" y="178" type="line"/>
      <point x="402" y="175" type="line"/>
      <point x="670" y="348" type="line"/>
      <point x="633" y="348" type="line"/>
      <point x="387" y="190" type="line"/>
      <point x="385" y="193" type="line"/>
      <point x="105" y="9" type="line"/>
    </contour>
    <contour>
      <point x="757" y="334" type="line"/>
      <point x="757" y="357" type="line"/>
      <point x="449" y="357" type="line"/>
      <point x="449" y="334" type="line"/>
    </contour>
    <contour>
      <point x="385" y="357" type="move" name="top"/>
    </contour>
    <contour>
      <point x="385" y="0" type="move" name="bottom"/>
    </contour>
  </outline>
</glyph>
<glyph name="z" format="1">
  <advance width="687"/>
  <unicode hex="007A"/>
  <outline>
    <contour>
      <point x="563" y="260" type="line"/>
      <point x="448" y="300"/>
      <point x="311" y="353"/>
      <point x="95" y="353" type="curve"/>
      <point x="95" y="222" type="line"/>
      <point x="70" y="222" type="line"/>
      <point x="70" y="375" type="line"/>
      <point x="95" y="375" type="line" smooth="yes"/>
      <point x="326" y="375"/>
      <point x="456" y="320"/>
      <point x="571" y="279" type="curve"/>
    </contour>
    <contour>
      <point x="657" y="361" type="line"/>
      <point x="578" y="150"/>
      <point x="195" y="200"/>
      <point x="74" y="-29" type="curve"/>
      <point x="53" y="-18" type="line"/>
      <point x="169" y="216"/>
      <point x="555" y="166"/>
      <point x="635" y="370" type="curve"/>
    </contour>
    <contour>
      <point x="683" y="100" type="line"/>
      <point x="670" y="20"/>
      <point x="613" y="-31"/>
      <point x="499" y="-31" type="curve" smooth="yes"/>
      <point x="402" y="-31"/>
      <point x="272" y="15"/>
      <point x="142" y="70" type="curve"/>
      <point x="158" y="85" type="line"/>
      <point x="286" y="32"/>
      <point x="413" y="-8"/>
      <point x="500" y="-8" type="curve" smooth="yes"/>
      <point x="582" y="-8"/>
      <point x="647" y="26"/>
      <point x="660" y="104" type="curve"/>
    </contour>
    <contour>
      <point x="384" y="362" type="move" name="top"/>
    </contour>
    <contour>
      <point x="344" y="-20" type="move" name="bottom"/>
    </contour>
  </outline>
</glyph>
<glyph name="braceleft" format="1">
  <advance width="430"/>
  <unicode hex="007B"/>
  <outline>
    <contour>
      <point x="234" y="235"/>
      <point x="300" y="271"/>
      <point x="300" y="324" type="curve" smooth="yes"/>
      <point x="300" y="419"/>
      <point x="113" y="404"/>
      <point x="113" y="504" type="curve" smooth="yes"/>
      <point x="113" y="577"/>
      <point x="217" y="601"/>
      <point x="298" y="601" type="curve" smooth="yes"/>
      <point x="347" y="601"/>
      <point x="405" y="598"/>
      <point x="444" y="594" type="curve"/>
      <point x="444" y="617" type="line"/>
      <point x="401" y="622"/>
      <point x="341" y="625"/>
      <point x="290" y="625" type="curve" smooth="yes"/>
      <point x="194" y="625"/>
      <point x="88" y="592"/>
      <point x="88" y="507" type="curve" smooth="yes"/>
      <point x="88" y="385"/>
      <point x="276" y="398"/>
      <point x="276" y="325" type="curve" smooth="yes"/>
      <point x="276" y="282"/>
      <point x="230" y="251"/>
      <point x="132" y="251" type="curve" smooth="yes"/>
      <point x="70" y="251" type="line"/>
      <point x="70" y="229" type="line"/>
      <point x="132" y="229" type="line" smooth="yes"/>
      <point x="230" y="229"/>
      <point x="276" y="198"/>
      <point x="276" y="155" type="curve" smooth="yes"/>
      <point x="276" y="87"/>
      <point x="88" y="90"/>
      <point x="88" y="-27" type="curve" smooth="yes"/>
      <point x="88" y="-112"/>
      <point x="194" y="-145"/>
      <point x="290" y="-145" type="curve" smooth="yes"/>
      <point x="341" y="-145"/>
      <point x="401" y="-142"/>
      <point x="444" y="-137" type="curve"/>
      <point x="444" y="-114" type="line"/>
      <point x="405" y="-118"/>
      <point x="347" y="-121"/>
      <point x="298" y="-121" type="curve" smooth="yes"/>
      <point x="217" y="-121"/>
      <point x="113" y="-97"/>
      <point x="113" y="-24" type="curve" smooth="yes"/>
      <point x="113" y="76"/>
      <point x="300" y="61"/>
      <point x="300" y="156" type="curve" smooth="yes"/>
      <point x="300" y="209"/>
      <point x="234" y="245"/>
      <point x="146" y="245" type="curve"/>
      <point x="146" y="235" type="line"/>
    </contour>
  </outline>
</glyph>
<glyph name="cent" format="1">
  <advance width="741"/>
  <unicode hex="00A2"/>
  <outline>
    <contour>
      <point x="474" y="418"/>
      <point x="589" y="380"/>
      <point x="662" y="294" type="curve"/>
      <point x="662" y="440" type="line"/>
      <point x="639" y="440" type="line"/>
      <point x="639" y="331" type="line"/>
      <point x="654" y="326" type="line"/>
      <point x="603" y="389"/>
      <point x="491" y="440"/>
      <point x="367" y="440" type="curve" smooth="yes"/>
      <point x="222" y="441"/>
      <point x="70" y="372"/>
      <point x="70" y="236" type="curve" smooth="yes"/>
      <point x="70" y="117"/>
      <point x="198" y="45"/>
      <point x="365" y="45" type="curve" smooth="yes"/>
      <point x="505" y="45"/>
      <point x="600" y="87"/>
      <point x="668" y="150" type="curve"/>
      <point x="653" y="168" type="line"/>
      <point x="590" y="110"/>
      <point x="494" y="68"/>
      <point x="365" y="67" type="curve" smooth="yes"/>
      <point x="208" y="66"/>
      <point x="95" y="136"/>
      <point x="95" y="236" type="curve" smooth="yes"/>
      <point x="95" y="356"/>
      <point x="232" y="419"/>
      <point x="365" y="418" type="curve" smooth="yes"/>
    </contour>
    <contour>
      <point x="357" y="-106" type="line"/>
      <point x="380" y="-106" type="line"/>
      <point x="380" y="594" type="line"/>
      <point x="357" y="594" type="line"/>
    </contour>
  </outline>
</glyph>
<glyph name="sterling" format="1">
  <advance width="741"/>
  <unicode hex="00A3"/>
  <outline>
    <contour>
      <point x="146" y="250"/>
      <point x="228" y="199"/>
      <point x="228" y="113" type="curve" smooth="yes"/>
      <point x="228" y="38"/>
      <point x="154" y="-20"/>
      <point x="45" y="-20" type="curve" smooth="yes"/>
      <point x="18" y="-20" type="line"/>
      <point x="18" y="2" type="line"/>
      <point x="45" y="2" type="line" smooth="yes"/>
      <point x="133" y="2"/>
      <point x="204" y="47"/>
      <point x="204" y="114" type="curve" smooth="yes"/>
      <point x="204" y="188"/>
      <point x="121" y="245"/>
      <point x="121" y="325" type="curve" smooth="yes"/>
      <point x="121" y="417"/>
      <point x="205" y="490"/>
      <point x="333" y="490" type="curve" smooth="yes"/>
      <point x="467" y="490"/>
      <point x="570" y="440"/>
      <point x="642" y="371" type="curve"/>
      <point x="628" y="373" type="line"/>
      <point x="628" y="490" type="line"/>
      <point x="651" y="490" type="line"/>
      <point x="651" y="336" type="line"/>
      <point x="554" y="434"/>
      <point x="448" y="467"/>
      <point x="331" y="467" type="curve" smooth="yes"/>
      <point x="226" y="467"/>
      <point x="146" y="407"/>
      <point x="146" y="325" type="curve" smooth="yes"/>
    </contour>
    <contour>
      <point x="539" y="151" type="line"/>
      <point x="18" y="151" type="line"/>
      <point x="18" y="173" type="line"/>
      <point x="178" y="173"/>
      <point x="349" y="173"/>
      <point x="539" y="173" type="curve"/>
    </contour>
    <contour>
      <point x="541" y="281" type="line"/>
      <point x="20" y="281" type="line"/>
      <point x="20" y="303" type="line"/>
      <point x="541" y="303" type="line"/>
    </contour>
    <contour>
      <point x="219" y="105" type="line"/>
      <point x="304" y="57"/>
      <point x="431" y="3"/>
      <point x="510" y="3" type="curve" smooth="yes"/>
      <point x="582" y="3"/>
      <point x="647" y="37"/>
      <point x="660" y="115" type="curve"/>
      <point x="683" y="111" type="line"/>
      <point x="670" y="31"/>
      <point x="613" y="-20"/>
      <point x="509" y="-20" type="curve" smooth="yes"/>
      <point x="421" y="-20"/>
      <point x="295" y="36"/>
      <point x="209" y="86" type="curve"/>
    </contour>
  </outline>
</glyph>
<glyph name="yen" format="1">
  <advance width="918"/>
  <unicode hex="00A5"/>
  <outline>
    <contour>
      <point x="717" y="466" type="line"/>
      <point x="451" y="163" type="line"/>
      <point x="467" y="151" type="line"/>
      <point x="732" y="450" type="line"/>
    </contour>
    <contour>
      <point x="200" y="468" type="line"/>
      <point x="185" y="450" type="line"/>
      <point x="451" y="151" type="line"/>
      <point x="470" y="163" type="line"/>
    </contour>
    <contour>
      <point x="472" y="161" type="line"/>
      <point x="447" y="161" type="line"/>
      <point x="447" y="0" type="line"/>
      <point x="472" y="0" type="line"/>
    </contour>
    <contour>
      <point x="654" y="0" type="line"/>
      <point x="654" y="23" type="line"/>
      <point x="265" y="23" type="line"/>
      <point x="265" y="0" type="line"/>
    </contour>
    <contour>
      <point x="558" y="470" type="line"/>
      <point x="558" y="447" type="line"/>
      <point x="894" y="447" type="line"/>
      <point x="894" y="470" type="line"/>
    </contour>
    <contour>
      <point x="24" y="470" type="line"/>
      <point x="24" y="447" type="line"/>
      <point x="361" y="447" type="line"/>
      <point x="361" y="470" type="line"/>
    </contour>
    <contour>
      <point x="100" y="172" type="line"/>
      <point x="100" y="150" type="line"/>
      <point x="821" y="150" type="line"/>
      <point x="821" y="172" type="line"/>
    </contour>
    <contour>
      <point x="100" y="322" type="line"/>
      <point x="100" y="300" type="line"/>
      <point x="821" y="300" type="line"/>
      <point x="821" y="322" type="line"/>
    </contour>
  </outline>
</glyph>
<glyph name="section" format="1">
  <advance width="810"/>
  <unicode hex="00A7"/>
  <outline>
    <contour>
      <point x="426" y="8" type="line"/>
      <point x="568" y="-4"/>
      <point x="708" y="27"/>
      <point x="708" y="112" type="curve" smooth="yes"/>
      <point x="708" y="181"/>
      <point x="633" y="222"/>
      <point x="440" y="240" type="curve" smooth="yes"/>
      <point x="201" y="262"/>
      <point x="103" y="290"/>
      <point x="103" y="384" type="curve" smooth="yes"/>
      <point x="103" y="468"/>
      <point x="202" y="517"/>
      <point x="318" y="517" type="curve" smooth="yes"/>
      <point x="460" y="517"/>
      <point x="594" y="442"/>
      <point x="667" y="367" type="curve"/>
      <point x="652" y="367" type="line"/>
      <point x="652" y="517" type="line"/>
      <point x="675" y="517" type="line"/>
      <point x="675" y="329" type="line"/>
      <point x="579" y="433"/>
      <point x="436" y="494"/>
      <point x="317" y="494" type="curve" smooth="yes"/>
      <point x="218" y="494"/>
      <point x="128" y="457"/>
      <point x="128" y="384" type="curve" smooth="yes"/>
      <point x="128" y="309"/>
      <point x="215" y="282"/>
      <point x="441" y="264" type="curve" smooth="yes"/>
      <point x="656" y="247"/>
      <point x="733" y="194"/>
      <point x="733" y="114" type="curve" smooth="yes"/>
      <point x="733" y="15"/>
      <point x="602" y="-23"/>
      <point x="445" y="-8" type="curve"/>
    </contour>
    <contour>
      <point x="384" y="248" type="line"/>
      <point x="242" y="260"/>
      <point x="102" y="229"/>
      <point x="102" y="144" type="curve" smooth="yes"/>
      <point x="102" y="75"/>
      <point x="177" y="34"/>
      <point x="370" y="16" type="curve" smooth="yes"/>
      <point x="609" y="-6"/>
      <point x="707" y="-34"/>
      <point x="707" y="-128" type="curve" smooth="yes"/>
      <point x="707" y="-212"/>
      <point x="608" y="-261"/>
      <point x="492" y="-261" type="curve" smooth="yes"/>
      <point x="350" y="-261"/>
      <point x="216" y="-186"/>
      <point x="143" y="-111" type="curve"/>
      <point x="158" y="-111" type="line"/>
      <point x="158" y="-261" type="line"/>
      <point x="135" y="-261" type="line"/>
      <point x="135" y="-73" type="line"/>
      <point x="231" y="-177"/>
      <point x="374" y="-238"/>
      <point x="493" y="-238" type="curve" smooth="yes"/>
      <point x="592" y="-238"/>
      <point x="682" y="-201"/>
      <point x="682" y="-128" type="curve" smooth="yes"/>
      <point x="682" y="-53"/>
      <point x="595" y="-26"/>
      <point x="369" y="-8" type="curve" smooth="yes"/>
      <point x="154" y="9"/>
      <point x="77" y="62"/>
      <point x="77" y="142" type="curve" smooth="yes"/>
      <point x="77" y="241"/>
      <point x="208" y="279"/>
      <point x="365" y="264" type="curve"/>
    </contour>
    <contour>
      <point x="486" y="259"/>
      <point x="551" y="215"/>
      <point x="551" y="128" type="curve"/>
      <point x="551" y="44"/>
      <point x="485" y="-4"/>
      <point x="406" y="-4" type="curve"/>
      <point x="331" y="-4"/>
      <point x="260" y="44"/>
      <point x="260" y="128" type="curve"/>
      <point x="260" y="215"/>
      <point x="332" y="259"/>
      <point x="407" y="259" type="curve"/>
    </contour>
    <contour>
      <point x="342" y="242"/>
      <point x="283" y="202"/>
      <point x="283" y="128" type="curve"/>
      <point x="283" y="56"/>
      <point x="342" y="13"/>
      <point x="406" y="13" type="curve"/>
      <point x="473" y="13"/>
      <point x="528" y="56"/>
      <point x="528" y="128" type="curve"/>
      <point x="528" y="202"/>
      <point x="473" y="242"/>
      <point x="406" y="242" type="curve"/>
    </contour>
  </outline>
</glyph>
<glyph name="copyright" format="1">
  <advance width="954"/>
  <unicode hex="00A9"/>
  <outline>
    <contour>
      <point x="233" y="-175"/>
      <point x="60" y="-27"/>
      <point x="60" y="170" type="curve"/>
      <point x="60" y="367"/>
      <point x="233" y="515"/>
      <point x="477" y="515" type="curve"/>
      <point x="721" y="515"/>
      <point x="894" y="367"/>
      <point x="894" y="170" type="curve"/>
      <point x="894" y="-27"/>
      <point x="721" y="-175"/>
      <point x="477" y="-175" type="curve"/>
    </contour>
    <contour>
      <point x="244" y="492"/>
      <point x="85" y="349"/>
      <point x="85" y="170" type="curve"/>
      <point x="85" y="-9"/>
      <point x="244" y="-152"/>
      <point x="477" y="-152" type="curve"/>
      <point x="710" y="-152"/>
      <point x="869" y="-9"/>
      <point x="869" y="170" type="curve"/>
      <point x="869" y="349"/>
      <point x="710" y="492"/>
      <point x="477" y="492" type="curve"/>
    </contour>
    <contour>
      <point x="359" y="304"/>
      <point x="269" y="248"/>
      <point x="269" y="165" type="curve" smooth="yes"/>
      <point x="269" y="85"/>
      <point x="343" y="30"/>
      <point x="458" y="29" type="curve" smooth="yes"/>
      <point x="563" y="28"/>
      <point x="641" y="72"/>
      <point x="681" y="123" type="curve"/>
      <point x="698" y="108" type="line"/>
      <point x="655" y="53"/>
      <point x="582" y="6"/>
      <point x="458" y="6" type="curve" smooth="yes"/>
      <point x="332" y="6"/>
      <point x="244" y="64"/>
      <point x="244" y="165" type="curve" smooth="yes"/>
      <point x="244" y="265"/>
      <point x="343" y="327"/>
      <point x="463" y="327" type="curve" smooth="yes"/>
      <point x="567" y="327"/>
      <point x="647" y="278"/>
      <point x="689" y="228" type="curve"/>
      <point x="676" y="233" type="line"/>
      <point x="676" y="327" type="line"/>
      <point x="699" y="327" type="line"/>
      <point x="699" y="192" type="line"/>
      <point x="632" y="271"/>
      <point x="552" y="304"/>
      <point x="461" y="304" type="curve" smooth="yes"/>
    </contour>
  </outline>
</glyph>
<glyph name="guillemetleft" format="1">
  <advance width="630"/>
  <unicode hex="00AB"/>
  <outline>
    <contour>
      <point x="465" y="236"/>
      <point x="574" y="334"/>
      <point x="610" y="428" type="curve"/>
      <point x="590" y="437" type="line"/>
      <point x="556" y="348"/>
      <point x="453" y="251"/>
      <point x="323" y="251" type="curve" smooth="yes"/>
      <point x="321" y="251" type="line"/>
      <point x="321" y="228" type="line"/>
      <point x="323" y="228" type="line" smooth="yes"/>
      <point x="453" y="228"/>
      <point x="556" y="131"/>
      <point x="590" y="42" type="curve"/>
      <point x="610" y="51" type="line"/>
      <point x="574" y="145"/>
      <point x="465" y="243"/>
      <point x="347" y="243" type="curve"/>
      <point x="347" y="236" type="line"/>
    </contour>
    <contour>
      <point x="194" y="236"/>
      <point x="298" y="329"/>
      <point x="339" y="428" type="curve"/>
      <point x="319" y="437" type="line"/>
      <point x="280" y="343"/>
      <point x="182" y="251"/>
      <point x="22" y="251" type="curve" smooth="yes"/>
      <point x="10" y="251" type="line"/>
      <point x="10" y="228" type="line"/>
      <point x="22" y="228" type="line" smooth="yes"/>
      <point x="182" y="228"/>
      <point x="280" y="136"/>
      <point x="319" y="42" type="curve"/>
      <point x="339" y="51" type="line"/>
      <point x="298" y="150"/>
      <point x="194" y="243"/>
      <point x="46" y="243" type="curve"/>
      <point x="46" y="236" type="line"/>
    </contour>
  </outline>
</glyph>
<glyph name="registered" format="1">
  <advance width="954"/>
  <unicode hex="00AE"/>
  <outline>
    <contour>
      <point x="233" y="-175"/>
      <point x="60" y="-27"/>
      <point x="60" y="170" type="curve"/>
      <point x="60" y="367"/>
      <point x="233" y="515"/>
      <point x="477" y="515" type="curve"/>
      <point x="721" y="515"/>
      <point x="894" y="367"/>
      <point x="894" y="170" type="curve"/>
      <point x="894" y="-27"/>
      <point x="721" y="-175"/>
      <point x="477" y="-175" type="curve"/>
    </contour>
    <contour>
      <point x="244" y="492"/>
      <point x="85" y="349"/>
      <point x="85" y="170" type="curve"/>
      <point x="85" y="-9"/>
      <point x="244" y="-152"/>
      <point x="477" y="-152" type="curve"/>
      <point x="710" y="-152"/>
      <point x="869" y="-9"/>
      <point x="869" y="170" type="curve"/>
      <point x="869" y="349"/>
      <point x="710" y="492"/>
      <point x="477" y="492" type="curve"/>
    </contour>
    <contour>
      <point x="439" y="145" type="line" smooth="yes"/>
      <point x="482" y="145"/>
      <point x="509" y="118"/>
      <point x="535" y="84" type="curve" smooth="yes"/>
      <point x="567" y="43"/>
      <point x="603" y="6"/>
      <point x="658" y="6" type="curve" smooth="yes"/>
      <point x="715" y="6"/>
      <point x="755" y="48"/>
      <point x="755" y="111" type="curve" smooth="yes"/>
      <point x="755" y="122" type="line"/>
      <point x="730" y="122" type="line"/>
      <point x="730" y="111" type="line" smooth="yes"/>
      <point x="730" y="59"/>
      <point x="698" y="29"/>
      <point x="658" y="29" type="curve" smooth="yes"/>
      <point x="618" y="29"/>
      <point x="591" y="53"/>
      <point x="561" y="91" type="curve" smooth="yes"/>
      <point x="528" y="133"/>
      <point x="498" y="158"/>
      <point x="437" y="158" type="curve" smooth="yes"/>
      <point x="330" y="158" type="line"/>
      <point x="330" y="145" type="line"/>
    </contour>
    <contour>
      <point x="337" y="35" type="line"/>
      <point x="337" y="296" type="line"/>
      <point x="313" y="296" type="line"/>
      <point x="313" y="35" type="line"/>
    </contour>
    <contour>
      <point x="440" y="28" type="line"/>
      <point x="440" y="51" type="line"/>
      <point x="216" y="50" type="line"/>
      <point x="216" y="27" type="line"/>
    </contour>
    <contour>
      <point x="589" y="146" type="line" smooth="yes"/>
      <point x="659" y="146"/>
      <point x="692" y="184"/>
      <point x="692" y="223" type="curve" smooth="yes"/>
      <point x="692" y="268"/>
      <point x="658" y="304"/>
      <point x="589" y="304" type="curve" smooth="yes"/>
      <point x="216" y="304" type="line"/>
      <point x="216" y="281" type="line"/>
      <point x="589" y="281" type="line" smooth="yes"/>
      <point x="639" y="281"/>
      <point x="667" y="258"/>
      <point x="667" y="223" type="curve" smooth="yes"/>
      <point x="667" y="190"/>
      <point x="638" y="168"/>
      <point x="589" y="168" type="curve" smooth="yes"/>
      <point x="330" y="168" type="line"/>
      <point x="330" y="146" type="line"/>
    </contour>
  </outline>
</glyph>
<glyph name="degree" format="1">
  <advance width="420"/>
  <unicode hex="00B0"/>
  <outline>
    <contour>
      <point x="130" y="614"/>
      <point x="63" y="566"/>
      <point x="63" y="489" type="curve"/>
      <point x="63" y="415"/>
      <point x="130" y="363"/>
      <point x="209" y="363" type="curve"/>
      <point x="292" y="363"/>
      <point x="354" y="415"/>
      <point x="354" y="489" type="curve"/>
      <point x="354" y="566"/>
      <point x="292" y="614"/>
      <point x="209" y="614" type="curve"/>
    </contour>
    <contour>
      <point x="280" y="592"/>
      <point x="331" y="551"/>
      <point x="331" y="489" type="curve"/>
      <point x="331" y="429"/>
      <point x="280" y="385"/>
      <point x="209" y="385" type="curve"/>
      <point x="141" y="385"/>
      <point x="86" y="429"/>
      <point x="86" y="489" type="curve"/>
      <point x="86" y="551"/>
      <point x="141" y="592"/>
      <point x="209" y="592" type="curve"/>
    </contour>
  </outline>
</glyph>
<glyph name="micro" format="1">
  <advance width="832"/>
  <unicode hex="00B5"/>
  <outline>
    <contour>
      <point x="482" y="-20"/>
      <point x="577" y="30"/>
      <point x="677" y="78" type="curve"/>
      <point x="677" y="102" type="line"/>
      <point x="577" y="52"/>
      <point x="467" y="3"/>
      <point x="378" y="3" type="curve"/>
      <point x="278" y="4"/>
      <point x="217" y="50"/>
      <point x="217" y="155" type="curve"/>
      <point x="217" y="357" type="line"/>
      <point x="200" y="357" type="line"/>
      <point x="200" y="155" type="line"/>
      <point x="200" y="29"/>
      <point x="268" y="-20"/>
      <point x="378" y="-20" type="curve"/>
    </contour>
    <contour>
      <point x="666" y="18"/>
      <point x="704" y="-20"/>
      <point x="754" y="-20" type="curve" smooth="yes"/>
      <point x="786" y="-20"/>
      <point x="812" y="-8"/>
      <point x="837" y="9" type="curve"/>
      <point x="827" y="29" type="line"/>
      <point x="804" y="12"/>
      <point x="782" y="3"/>
      <point x="755" y="3" type="curve" smooth="yes"/>
      <point x="723" y="3"/>
      <point x="691" y="28"/>
      <point x="691" y="84" type="curve"/>
      <point x="691" y="357" type="line"/>
      <point x="666" y="357" type="line"/>
      <point x="666" y="84" type="line"/>
    </contour>
    <contour>
      <point x="10" y="357" type="line"/>
      <point x="10" y="334" type="line"/>
      <point x="217" y="334" type="line"/>
      <point x="217" y="357" type="line"/>
    </contour>
    <contour>
      <point x="193" y="-165" type="line"/>
      <point x="217" y="-165" type="line"/>
      <point x="217" y="0" type="line"/>
      <point x="217" y="32"/>
      <point x="211" y="65"/>
      <point x="208" y="97" type="curve"/>
      <point x="208" y="357" type="line"/>
      <point x="193" y="357" type="line"/>
    </contour>
  </outline>
</glyph>
<glyph name="paragraph" format="1">
  <advance width="823"/>
  <unicode hex="00B6"/>
  <outline>
    <contour>
      <point x="600" y="446" type="line"/>
      <point x="600" y="-155" type="line"/>
      <point x="624" y="-151" type="line"/>
      <point x="624" y="436" type="line"/>
    </contour>
    <contour>
      <point x="500" y="492"/>
      <point x="644" y="433"/>
      <point x="757" y="340" type="curve"/>
      <point x="757" y="364" type="line"/>
      <point x="648" y="453"/>
      <point x="506" y="515"/>
      <point x="357" y="516" type="curve" smooth="yes"/>
      <point x="212" y="517"/>
      <point x="99" y="441"/>
      <point x="99" y="335" type="curve" smooth="yes"/>
      <point x="99" y="229"/>
      <point x="199" y="171"/>
      <point x="322" y="171" type="curve" smooth="yes"/>
      <point x="451" y="171"/>
      <point x="549" y="221"/>
      <point x="615" y="268" type="curve"/>
      <point x="615" y="292" type="line"/>
      <point x="540" y="239"/>
      <point x="436" y="194"/>
      <point x="322" y="194" type="curve" smooth="yes"/>
      <point x="209" y="194"/>
      <point x="124" y="245"/>
      <point x="124" y="335" type="curve" smooth="yes"/>
      <point x="124" y="427"/>
      <point x="223" y="494"/>
      <point x="357" y="493" type="curve" smooth="yes"/>
    </contour>
    <contour>
      <point x="362" y="-127" type="line"/>
      <point x="411" y="-149"/>
      <point x="479" y="-174"/>
      <point x="560" y="-174" type="curve" smooth="yes"/>
      <point x="677" y="-174"/>
      <point x="766" y="-110"/>
      <point x="766" y="24" type="curve" smooth="yes"/>
      <point x="766" y="515" type="line"/>
      <point x="741" y="515" type="line"/>
      <point x="741" y="23" type="line" smooth="yes"/>
      <point x="741" y="-95"/>
      <point x="660" y="-151"/>
      <point x="561" y="-151" type="curve" smooth="yes"/>
      <point x="488" y="-151"/>
      <point x="418" y="-126"/>
      <point x="369" y="-104" type="curve"/>
    </contour>
  </outline>
</glyph>
<glyph name="periodcentered" format="1">
  <advance width="246"/>
  <unicode hex="00B7"/>
  <outline>
    <contour>
      <point x="92" y="267"/>
      <point x="74" y="253"/>
      <point x="74" y="234" type="curve"/>
      <point x="74" y="216"/>
      <point x="92" y="203"/>
      <point x="123" y="203" type="curve"/>
      <point x="155" y="203"/>
      <point x="172" y="216"/>
      <point x="172" y="234" type="curve"/>
      <point x="172" y="253"/>
      <point x="155" y="267"/>
      <point x="123" y="267" type="curve"/>
    </contour>
  </outline>
</glyph>
<glyph name="multiply" format="1">
  <advance width="637"/>
  <unicode hex="00D7"/>
  <outline>
    <contour>
      <point x="89" y="70" type="line"/>
      <point x="106" y="53" type="line"/>
      <point x="527" y="405" type="line"/>
      <point x="510" y="422" type="line"/>
    </contour>
    <contour>
      <point x="89" y="404" type="line"/>
      <point x="510" y="52" type="line"/>
      <point x="528" y="70" type="line"/>
      <point x="107" y="422" type="line"/>
    </contour>
  </outline>
</glyph>
<glyph name="ae" format="1">
  <advance width="1184"/>
  <unicode hex="00E6"/>
  <outline>
    <contour>
      <point x="582" y="130" type="line"/>
      <point x="582" y="207" type="line" smooth="yes"/>
      <point x="582" y="307"/>
      <point x="522" y="377"/>
      <point x="374" y="377" type="curve" smooth="yes"/>
      <point x="285" y="377"/>
      <point x="193" y="354"/>
      <point x="92" y="322" type="curve"/>
      <point x="92" y="297" type="line"/>
      <point x="194" y="329"/>
      <point x="281" y="354"/>
      <point x="374" y="354" type="curve" smooth="yes"/>
      <point x="509" y="354"/>
      <point x="562" y="291"/>
      <point x="562" y="207" type="curve" smooth="yes"/>
      <point x="562" y="161" type="line"/>
    </contour>
    <contour>
      <point x="352" y="-20"/>
      <point x="491" y="21"/>
      <point x="590" y="92" type="curve"/>
      <point x="590" y="114" type="line"/>
      <point x="486" y="45"/>
      <point x="350" y="3"/>
      <point x="247" y="3" type="curve"/>
      <point x="174" y="3"/>
      <point x="95" y="28"/>
      <point x="95" y="89" type="curve"/>
      <point x="95" y="158"/>
      <point x="187" y="183"/>
      <point x="291" y="183" type="curve" smooth="yes"/>
      <point x="384" y="183"/>
      <point x="486" y="168"/>
      <point x="573" y="153" type="curve"/>
      <point x="573" y="176" type="line"/>
      <point x="486" y="191"/>
      <point x="386" y="206"/>
      <point x="275" y="206" type="curve" smooth="yes"/>
      <point x="173" y="206"/>
      <point x="70" y="174"/>
      <point x="70" y="89" type="curve"/>
      <point x="70" y="11"/>
      <point x="146" y="-20"/>
      <point x="247" y="-20" type="curve"/>
    </contour>
    <contour>
      <point x="1099" y="74" type="line"/>
      <point x="1023" y="30"/>
      <point x="932" y="2"/>
      <point x="835" y="3" type="curve"/>
      <point x="725" y="2"/>
      <point x="586" y="62"/>
      <point x="586" y="167" type="curve"/>
      <point x="586" y="290"/>
      <point x="746" y="353"/>
      <point x="872" y="353" type="curve" smooth="yes"/>
      <point x="982" y="353"/>
      <point x="1084" y="324"/>
      <point x="1084" y="258" type="curve" smooth="yes"/>
      <point x="1084" y="192"/>
      <point x="975" y="165"/>
      <point x="880" y="165" type="curve" smooth="yes"/>
      <point x="802" y="165"/>
      <point x="671" y="188"/>
      <point x="581" y="217" type="curve"/>
      <point x="582" y="194" type="line"/>
      <point x="671" y="165"/>
      <point x="802" y="142"/>
      <point x="880" y="142" type="curve" smooth="yes"/>
      <point x="990" y="142"/>
      <point x="1109" y="179"/>
      <point x="1109" y="260" type="curve" smooth="yes"/>
      <point x="1109" y="340"/>
      <point x="995" y="376"/>
      <point x="876" y="376" type="curve" smooth="yes"/>
      <point x="726" y="376"/>
      <point x="584" y="303"/>
      <point x="574" y="195" type="curve"/>
      <point x="574" y="167" type="line"/>
      <point x="562" y="167" type="line"/>
      <point x="562" y="41"/>
      <point x="716" y="-20"/>
      <point x="835" y="-20" type="curve"/>
      <point x="936" y="-20"/>
      <point x="1033" y="9"/>
      <point x="1110" y="55" type="curve"/>
    </contour>
    <contour>
      <point x="592" y="377" type="move" name="top"/>
    </contour>
    <contour>
      <point x="592" y="-20" type="move" name="bottom"/>
    </contour>
  </outline>
</glyph>
<glyph name="eth" format="1">
  <advance width="719"/>
  <unicode hex="00F0"/>
  <outline>
    <contour>
      <point x="318" y="398" type="line"/>
      <point x="336" y="387" type="line"/>
      <point x="504" y="625" type="line"/>
      <point x="486" y="637" type="line"/>
    </contour>
    <contour>
      <point x="633" y="224" type="line"/>
      <point x="555" y="276"/>
      <point x="439" y="315"/>
      <point x="329" y="315" type="curve" smooth="yes"/>
      <point x="186" y="315"/>
      <point x="70" y="255"/>
      <point x="70" y="147" type="curve" smooth="yes"/>
      <point x="70" y="43"/>
      <point x="194" y="-20"/>
      <point x="341" y="-20" type="curve" smooth="yes"/>
      <point x="512" y="-20"/>
      <point x="649" y="62"/>
      <point x="649" y="224" type="curve" smooth="yes"/>
      <point x="649" y="417"/>
      <point x="457" y="551"/>
      <point x="205" y="592" type="curve"/>
      <point x="199" y="569" type="line"/>
      <point x="455" y="527"/>
      <point x="625" y="400"/>
      <point x="625" y="224" type="curve" smooth="yes"/>
      <point x="625" y="74"/>
      <point x="495" y="4"/>
      <point x="341" y="4" type="curve" smooth="yes"/>
      <point x="197" y="4"/>
      <point x="95" y="64"/>
      <point x="95" y="148" type="curve" smooth="yes"/>
      <point x="95" y="234"/>
      <point x="185" y="292"/>
      <point x="326" y="292" type="curve" smooth="yes"/>
      <point x="445" y="292"/>
      <point x="554" y="254"/>
      <point x="633" y="199" type="curve"/>
    </contour>
  </outline>
</glyph>
<glyph name="Hbar" format="1">
  <advance width="1131"/>
  <unicode hex="0126"/>
  <outline>
    <contour>
      <point x="56" y="356" type="line"/>
      <point x="56" y="334" type="line"/>
      <point x="1075" y="334" type="line"/>
      <point x="1075" y="356" type="line"/>
    </contour>
    <contour>
      <point x="875" y="207" type="line"/>
      <point x="875" y="230" type="line"/>
      <point x="258" y="230" type="line"/>
      <point x="258" y="207" type="line"/>
    </contour>
    <contour>
      <point x="442" y="0" type="line"/>
      <point x="442" y="23" type="line"/>
      <point x="56" y="23" type="line"/>
      <point x="56" y="0" type="line"/>
    </contour>
    <contour>
      <point x="263" y="11" type="line"/>
      <point x="263" y="477" type="line"/>
      <point x="238" y="477" type="line"/>
      <point x="238" y="11" type="line"/>
    </contour>
    <contour>
      <point x="442" y="467" type="line"/>
      <point x="442" y="490" type="line"/>
      <point x="56" y="490" type="line"/>
      <point x="56" y="467" type="line"/>
    </contour>
    <contour>
      <point x="1075" y="0" type="line"/>
      <point x="1075" y="23" type="line"/>
      <point x="689" y="23" type="line"/>
      <point x="689" y="0" type="line"/>
    </contour>
    <contour>
      <point x="894" y="13" type="line"/>
      <point x="894" y="479" type="line"/>
      <point x="869" y="479" type="line"/>
      <point x="869" y="13" type="line"/>
    </contour>
    <contour>
      <point x="1075" y="467" type="line"/>
      <point x="1075" y="490" type="line"/>
      <point x="689" y="490" type="line"/>
      <point x="689" y="467" type="line"/>
    </contour>
  </outline>
</glyph>
<glyph name="idotless" format="1">
  <advance width="409"/>
  <unicode hex="0131"/>
  <outline>
    <contour>
      <point x="220" y="0" type="line"/>
      <point x="245" y="0" type="line"/>
      <point x="245" y="357" type="line"/>
      <point x="220" y="357" type="line"/>
    </contour>
    <contour>
      <point x="40" y="23" type="line"/>
      <point x="40" y="0" type="line"/>
      <point x="406" y="0" type="line"/>
      <point x="406" y="23" type="line"/>
    </contour>
    <contour>
      <point x="40" y="357" type="line"/>
      <point x="40" y="334" type="line"/>
      <point x="245" y="334" type="line"/>
      <point x="245" y="357" type="line"/>
    </contour>
    <contour>
      <point x="398" y="10" type="move" name="ogonek"/>
    </contour>
    <contour>
      <point x="205" y="0" type="move" name="bottom"/>
    </contour>
    <contour>
      <point x="215" y="357" type="move" name="top"/>
    </contour>
  </outline>
</glyph>
<glyph name="Eng" format="1">
  <advance width="1118"/>
  <unicode hex="014A"/>
  <outline>
    <contour>
      <point x="262" y="12" type="line"/>
      <point x="262" y="490" type="line"/>
      <point x="237" y="490" type="line"/>
      <point x="237" y="12" type="line"/>
    </contour>
    <contour>
      <point x="218" y="490" type="line"/>
      <point x="909" y="-23" type="line"/>
      <point x="909" y="477" type="line"/>
      <point x="884" y="477" type="line"/>
      <point x="884" y="24" type="line"/>
      <point x="262" y="490" type="line"/>
    </contour>
    <contour>
      <point x="262" y="490" type="line"/>
      <point x="56" y="490" type="line"/>
      <point x="56" y="467" type="line"/>
      <point x="262" y="467" type="line"/>
    </contour>
    <contour>
      <point x="1090" y="467" type="line"/>
      <point x="1090" y="490" type="line"/>
      <point x="704" y="490" type="line"/>
      <point x="704" y="467" type="line"/>
    </contour>
    <contour>
      <point x="56" y="23" type="line"/>
      <point x="56" y="0" type="line"/>
      <point x="442" y="0" type="line"/>
      <point x="442" y="23" type="line"/>
    </contour>
    <contour>
      <point x="495" y="-141" type="line"/>
      <point x="562" y="-175"/>
      <point x="639" y="-210"/>
      <point x="732" y="-210" type="curve" smooth="yes"/>
      <point x="834" y="-210"/>
      <point x="909" y="-145"/>
      <point x="909" y="-24" type="curve" smooth="yes"/>
      <point x="909" y="477" type="line"/>
      <point x="884" y="477" type="line"/>
      <point x="884" y="-24" type="line" smooth="yes"/>
      <point x="884" y="-142"/>
      <point x="808" y="-187"/>
      <point x="732" y="-187" type="curve" smooth="yes"/>
      <point x="656" y="-187"/>
      <point x="574" y="-154"/>
      <point x="506" y="-119" type="curve"/>
    </contour>
  </outline>
</glyph>
<glyph name="eng" format="1">
  <advance width="870"/>
  <unicode hex="014B"/>
  <outline>
    <contour>
      <point x="222" y="0" type="line"/>
      <point x="247" y="0" type="line"/>
      <point x="247" y="357" type="line"/>
      <point x="222" y="357" type="line"/>
    </contour>
    <contour>
      <point x="40" y="23" type="line"/>
      <point x="40" y="0" type="line"/>
      <point x="408" y="0" type="line"/>
      <point x="408" y="23" type="line"/>
    </contour>
    <contour>
      <point x="40" y="357" type="line"/>
      <point x="40" y="334" type="line"/>
      <point x="247" y="334" type="line"/>
      <point x="247" y="357" type="line"/>
    </contour>
    <contour>
      <point x="762" y="145" type="line" smooth="yes"/>
      <point x="762" y="267"/>
      <point x="713" y="377"/>
      <point x="557" y="377" type="curve" smooth="yes"/>
      <point x="421" y="377"/>
      <point x="298" y="273"/>
      <point x="234" y="221" type="curve"/>
      <point x="234" y="198" type="line"/>
      <point x="298" y="249"/>
      <point x="421" y="354"/>
      <point x="557" y="354" type="curve" smooth="yes"/>
      <point x="703" y="354"/>
      <point x="737" y="247"/>
      <point x="737" y="145" type="curve" smooth="yes"/>
      <point x="737" y="-53" type="line" smooth="yes"/>
      <point x="737" y="-141"/>
      <point x="685" y="-187"/>
      <point x="619" y="-187" type="curve" smooth="yes"/>
      <point x="572" y="-187"/>
      <point x="527" y="-176"/>
      <point x="485" y="-163" type="curve"/>
      <point x="478" y="-185" type="line"/>
      <point x="520" y="-198"/>
      <point x="566" y="-210"/>
      <point x="618" y="-210" type="curve" smooth="yes"/>
      <point x="702" y="-210"/>
      <point x="763" y="-149"/>
      <point x="762" y="-52" type="curve"/>
    </contour>
  </outline>
</glyph>
<glyph name="oe" format="1">
  <advance width="1269"/>
  <unicode hex="0153"/>
  <outline>
    <contour>
      <point x="528" y="-20"/>
      <point x="667" y="50"/>
      <point x="667" y="179" type="curve"/>
      <point x="667" y="312"/>
      <point x="528" y="377"/>
      <point x="369" y="377" type="curve"/>
      <point x="211" y="376"/>
      <point x="70" y="312"/>
      <point x="70" y="179" type="curve"/>
      <point x="70" y="50"/>
      <point x="211" y="-20"/>
      <point x="369" y="-20" type="curve" smooth="yes"/>
    </contour>
    <contour>
      <point x="222" y="3"/>
      <point x="95" y="66"/>
      <point x="95" y="179" type="curve"/>
      <point x="95" y="295"/>
      <point x="222" y="353"/>
      <point x="369" y="354" type="curve"/>
      <point x="518" y="354"/>
      <point x="646" y="295"/>
      <point x="646" y="179" type="curve"/>
      <point x="646" y="66"/>
      <point x="518" y="3"/>
      <point x="369" y="3" type="curve" smooth="yes"/>
    </contour>
    <contour>
      <point x="1184" y="74" type="line"/>
      <point x="1108" y="30"/>
      <point x="1017" y="2"/>
      <point x="920" y="3" type="curve"/>
      <point x="810" y="2"/>
      <point x="671" y="62"/>
      <point x="671" y="167" type="curve"/>
      <point x="671" y="290"/>
      <point x="831" y="353"/>
      <point x="957" y="353" type="curve" smooth="yes"/>
      <point x="1067" y="353"/>
      <point x="1169" y="324"/>
      <point x="1169" y="258" type="curve" smooth="yes"/>
      <point x="1169" y="192"/>
      <point x="1060" y="165"/>
      <point x="965" y="165" type="curve" smooth="yes"/>
      <point x="887" y="165"/>
      <point x="756" y="188"/>
      <point x="666" y="217" type="curve"/>
      <point x="667" y="194" type="line"/>
      <point x="756" y="165"/>
      <point x="887" y="142"/>
      <point x="965" y="142" type="curve" smooth="yes"/>
      <point x="1075" y="142"/>
      <point x="1194" y="179"/>
      <point x="1194" y="260" type="curve" smooth="yes"/>
      <point x="1194" y="340"/>
      <point x="1080" y="376"/>
      <point x="961" y="376" type="curve" smooth="yes"/>
      <point x="811" y="376"/>
      <point x="663" y="301"/>
      <point x="653" y="193" type="curve"/>
      <point x="653" y="165" type="line"/>
      <point x="653" y="39"/>
      <point x="801" y="-20"/>
      <point x="920" y="-20" type="curve"/>
      <point x="1021" y="-20"/>
      <point x="1118" y="9"/>
      <point x="1195" y="55" type="curve"/>
    </contour>
    <contour>
      <point x="660" y="387" type="move" name="top"/>
    </contour>
    <contour>
      <point x="655" y="-20" type="move" name="bottom"/>
    </contour>
  </outline>
</glyph>
<glyph name="Tbar" format="1">
  <advance width="819"/>
  <unicode hex="0166"/>
  <outline>
    <contour>
      <point x="115" y="226" type="line"/>
      <point x="115" y="204" type="line"/>
      <point x="704" y="204" type="line"/>
      <point x="704" y="226" type="line"/>
    </contour>
    <component base="T"/>
  </outline>
</glyph>
<glyph name="tbar" format="1">
  <advance width="475"/>
  <unicode hex="0167"/>
  <outline>
    <contour>
      <point x="29" y="226" type="line"/>
      <point x="29" y="204" type="line"/>
      <point x="395" y="204" type="line"/>
      <point x="395" y="226" type="line"/>
    </contour>
    <component base="t"/>
  </outline>
</glyph>
<glyph name="commaturnedmod" format="1">
  <advance width="262"/>
  <unicode hex="02BB"/>
  <outline>
    <component base="comma" xOffset="253" yOffset="-205" xScale="-1" yScale="-1"/>
    <contour>
      <point x="127" y="0" type="move" name="_bottom"/>
    </contour>
  </outline>
</glyph>
<glyph name="dotaccentcomb" format="1">
  <advance width="254"/>
  <unicode hex="0307"/>
  <outline>
    <contour>
      <point x="94" y="633"/>
      <point x="75" y="619"/>
      <point x="75" y="599" type="curve"/>
      <point x="75" y="580"/>
      <point x="94" y="565"/>
      <point x="127" y="565" type="curve"/>
      <point x="161" y="565"/>
      <point x="179" y="580"/>
      <point x="179" y="599" type="curve"/>
      <point x="179" y="619"/>
      <point x="161" y="633"/>
      <point x="127" y="633" type="curve"/>
    </contour>
    <contour>
      <point x="127" y="461" type="move" name="_top"/>
    </contour>
  </outline>
</glyph>
<glyph name="hungarumlautcomb" format="1">
  <advance width="537"/>
  <unicode hex="030B"/>
  <outline>
    <contour>
      <point x="428" y="664" type="line"/>
      <point x="445" y="644" type="line"/>
      <point x="270" y="487" type="line"/>
      <point x="261" y="497" type="line"/>
    </contour>
    <contour>
      <point x="232" y="664" type="line"/>
      <point x="249" y="644" type="line"/>
      <point x="74" y="487" type="line"/>
      <point x="65" y="497" type="line"/>
    </contour>
    <contour>
      <point x="247" y="391" type="move" name="_top"/>
    </contour>
  </outline>
</glyph>
<glyph name="slashshortcomb" format="1">
  <advance width="417"/>
  <unicode hex="0337"/>
  <outline>
    <contour>
      <point x="294" y="391" type="line"/>
      <point x="266" y="391" type="line"/>
      <point x="97" y="67" type="line"/>
      <point x="125" y="67" type="line"/>
    </contour>
  </outline>
</glyph>
<glyph name="Germandbls" format="1">
  <advance width="961"/>
  <unicode hex="1E9E"/>
  <outline>
    <contour>
      <point x="502" y="238" type="line"/>
      <point x="817" y="215"/>
      <point x="881" y="160"/>
      <point x="881" y="98" type="curve" smooth="yes"/>
      <point x="881" y="37"/>
      <point x="810" y="3"/>
      <point x="726" y="3" type="curve" smooth="yes"/>
      <point x="612" y="3"/>
      <point x="484" y="64"/>
      <point x="388" y="168" type="curve"/>
      <point x="388" y="0" type="line"/>
      <point x="411" y="0" type="line"/>
      <point x="411" y="130" type="line"/>
      <point x="396" y="130" type="line"/>
      <point x="469" y="55"/>
      <point x="588" y="-20"/>
      <point x="725" y="-20" type="curve" smooth="yes"/>
      <point x="826" y="-20"/>
      <point x="905" y="24"/>
      <point x="905" y="98" type="curve" smooth="yes"/>
      <point x="905" y="182"/>
      <point x="809" y="234"/>
      <point x="555" y="253" type="curve"/>
      <point x="873" y="499" type="line"/>
      <point x="860" y="518" type="line"/>
    </contour>
    <contour>
      <point x="219" y="0" type="line"/>
      <point x="219" y="23" type="line"/>
      <point x="20" y="23" type="line"/>
      <point x="20" y="0" type="line"/>
    </contour>
    <contour>
      <point x="732" y="400" type="line"/>
      <point x="667" y="458"/>
      <point x="575" y="518"/>
      <point x="452" y="518" type="curve" smooth="yes"/>
      <point x="297" y="518"/>
      <point x="202" y="424"/>
      <point x="202" y="286" type="curve" smooth="yes"/>
      <point x="202" y="0" type="line"/>
      <point x="227" y="0" type="line"/>
      <point x="227" y="288" type="line" smooth="yes"/>
      <point x="227" y="410"/>
      <point x="314" y="495"/>
      <point x="450" y="495" type="curve" smooth="yes"/>
      <point x="571" y="495"/>
      <point x="648" y="441"/>
      <point x="713" y="385" type="curve"/>
    </contour>
    <contour>
      <point x="481" y="520" type="move" name="top"/>
    </contour>
    <contour>
      <point x="481" y="0" type="move" name="bottom"/>
    </contour>
  </outline>
</glyph>
<glyph name="quoteleft" format="1">
  <advance width="262"/>
  <unicode hex="2018"/>
  <outline>
    <contour>
      <point x="76" y="387"/>
      <point x="95" y="367"/>
      <point x="130" y="367" type="curve" smooth="yes"/>
      <point x="161" y="367"/>
      <point x="180" y="382"/>
      <point x="180" y="401" type="curve" smooth="yes"/>
      <point x="180" y="419"/>
      <point x="162" y="431"/>
      <point x="137" y="431" type="curve" smooth="yes"/>
      <point x="122" y="431"/>
      <point x="109" y="429"/>
      <point x="97" y="426" type="curve"/>
      <point x="104" y="470"/>
      <point x="145" y="515"/>
      <point x="195" y="560" type="curve"/>
      <point x="183" y="572" type="line"/>
      <point x="122" y="524"/>
      <point x="76" y="462"/>
      <point x="76" y="419" type="curve" smooth="yes"/>
    </contour>
  </outline>
</glyph>
<glyph name="quoteright" format="1">
  <advance width="262"/>
  <unicode hex="2019"/>
  <outline>
    <contour>
      <point x="186" y="540"/>
      <point x="167" y="560"/>
      <point x="132" y="560" type="curve" smooth="yes"/>
      <point x="101" y="560"/>
      <point x="82" y="545"/>
      <point x="82" y="526" type="curve" smooth="yes"/>
      <point x="82" y="507"/>
      <point x="100" y="496"/>
      <point x="125" y="496" type="curve" smooth="yes"/>
      <point x="140" y="496"/>
      <point x="153" y="498"/>
      <point x="165" y="500" type="curve"/>
      <point x="158" y="456"/>
      <point x="117" y="412"/>
      <point x="67" y="367" type="curve"/>
      <point x="78" y="355" type="line"/>
      <point x="139" y="403"/>
      <point x="186" y="465"/>
      <point x="186" y="508" type="curve" smooth="yes"/>
    </contour>
  </outline>
</glyph>
<glyph name="guilsinglleft" format="1">
  <advance width="359"/>
  <unicode hex="2039"/>
  <outline>
    <contour>
      <point x="194" y="236"/>
      <point x="298" y="329"/>
      <point x="339" y="428" type="curve"/>
      <point x="319" y="437" type="line"/>
      <point x="280" y="343"/>
      <point x="182" y="251"/>
      <point x="22" y="251" type="curve" smooth="yes"/>
      <point x="10" y="251" type="line"/>
      <point x="10" y="228" type="line"/>
      <point x="22" y="228" type="line" smooth="yes"/>
      <point x="182" y="228"/>
      <point x="280" y="136"/>
      <point x="319" y="42" type="curve"/>
      <point x="339" y="51" type="line"/>
      <point x="298" y="150"/>
      <point x="194" y="243"/>
      <point x="46" y="243" type="curve"/>
      <point x="46" y="236" type="line"/>
    </contour>
  </outline>
</glyph>
<glyph name="A.alt" format="1">
  <advance width="993"/>
  <outline>
    <contour>
      <point x="166" y="13" type="line"/>
      <point x="497" y="482" type="line"/>
      <point x="827" y="13" type="line"/>
      <point x="856" y="13" type="line"/>
      <point x="497" y="522" type="line"/>
      <point x="137" y="13" type="line"/>
    </contour>
    <contour>
      <point x="1010" y="0" type="line"/>
      <point x="1010" y="23" type="line"/>
      <point x="673" y="23" type="line"/>
      <point x="673" y="0" type="line"/>
    </contour>
    <contour>
      <point x="319" y="0" type="line"/>
      <point x="319" y="23" type="line"/>
      <point x="-18" y="23" type="line"/>
      <point x="-18" y="0" type="line"/>
    </contour>
    <contour>
      <point x="703" y="206" type="line"/>
      <point x="291" y="206" type="line"/>
      <point x="272" y="183" type="line"/>
      <point x="718" y="183" type="line"/>
    </contour>
    <contour>
      <point x="894" y="10" type="move" name="ogonek"/>
    </contour>
    <contour>
      <point x="497" y="0" type="move" name="bottom"/>
    </contour>
    <contour>
      <point x="497" y="490" type="move" name="top"/>
    </contour>
  </outline>
</glyph>
<glyph name="Q.alt" format="1">
  <advance width="905"/>
  <outline>
    <contour>
      <point x="552" y="185"/>
      <point x="428" y="265"/>
      <point x="180" y="265" type="curve" smooth="yes"/>
      <point x="83" y="265" type="line"/>
      <point x="83" y="242" type="line"/>
      <point x="180" y="242" type="line" smooth="yes"/>
      <point x="407" y="242"/>
      <point x="527" y="174"/>
      <point x="681" y="19" type="curve" smooth="yes"/>
      <point x="883" y="-185"/>
      <point x="1022" y="-280"/>
      <point x="1212" y="-280" type="curve" smooth="yes"/>
      <point x="1356" y="-280"/>
      <point x="1456" y="-227"/>
      <point x="1522" y="-184" type="curve"/>
      <point x="1509" y="-165" type="line"/>
      <point x="1448" y="-206"/>
      <point x="1352" y="-257"/>
      <point x="1212" y="-257" type="curve" smooth="yes"/>
      <point x="1043" y="-257"/>
      <point x="912" y="-177"/>
      <point x="716" y="20" type="curve" smooth="yes"/>
    </contour>
    <contour>
      <point x="669" y="-20"/>
      <point x="836" y="78"/>
      <point x="836" y="248" type="curve"/>
      <point x="836" y="417"/>
      <point x="669" y="516"/>
      <point x="453" y="516" type="curve"/>
      <point x="237" y="516"/>
      <point x="70" y="417"/>
      <point x="70" y="248" type="curve"/>
      <point x="70" y="78"/>
      <point x="237" y="-20"/>
      <point x="453" y="-20" type="curve"/>
    </contour>
    <contour>
      <point x="247" y="3"/>
      <point x="95" y="96"/>
      <point x="95" y="248" type="curve"/>
      <point x="95" y="400"/>
      <point x="247" y="493"/>
      <point x="453" y="493" type="curve"/>
      <point x="658" y="493"/>
      <point x="811" y="400"/>
      <point x="811" y="248" type="curve"/>
      <point x="811" y="96"/>
      <point x="658" y="3"/>
      <point x="453" y="3" type="curve"/>
    </contour>
    <contour>
      <point x="453" y="520" type="move" name="top"/>
    </contour>
    <contour>
      <point x="453" y="-20" type="move" name="bottom"/>
    </contour>
  </outline>
</glyph>
<glyph name="R.alt" format="1">
  <advance width="893"/>
  <outline>
    <contour>
      <point x="263" y="18" type="line"/>
      <point x="263" y="475" type="line"/>
      <point x="238" y="475" type="line"/>
      <point x="238" y="18" type="line"/>
    </contour>
    <contour>
      <point x="456" y="0" type="line"/>
      <point x="456" y="23" type="line"/>
      <point x="56" y="23" type="line"/>
      <point x="56" y="0" type="line"/>
    </contour>
    <contour>
      <point x="251" y="227" type="line"/>
      <point x="252" y="213" type="line"/>
      <point x="403" y="213" type="line" smooth="yes"/>
      <point x="566" y="213"/>
      <point x="627" y="167"/>
      <point x="762" y="12" type="curve" smooth="yes"/>
      <point x="894" y="-140"/>
      <point x="1031" y="-280"/>
      <point x="1246" y="-280" type="curve" smooth="yes"/>
      <point x="1413" y="-280"/>
      <point x="1508" y="-214"/>
      <point x="1566" y="-176" type="curve"/>
      <point x="1554" y="-156" type="line"/>
      <point x="1501" y="-192"/>
      <point x="1409" y="-257"/>
      <point x="1246" y="-257" type="curve" smooth="yes"/>
      <point x="1052" y="-257"/>
      <point x="922" y="-134"/>
      <point x="795" y="13" type="curve" smooth="yes"/>
      <point x="660" y="169"/>
      <point x="593" y="227"/>
      <point x="405" y="227" type="curve" smooth="yes"/>
    </contour>
    <contour>
      <point x="631" y="214" type="line" smooth="yes"/>
      <point x="755" y="214"/>
      <point x="814" y="283"/>
      <point x="814" y="353" type="curve" smooth="yes"/>
      <point x="814" y="432"/>
      <point x="754" y="490"/>
      <point x="631" y="490" type="curve" smooth="yes"/>
      <point x="56" y="490" type="line"/>
      <point x="56" y="467" type="line"/>
      <point x="631" y="467" type="line" smooth="yes"/>
      <point x="740" y="467"/>
      <point x="789" y="416"/>
      <point x="789" y="353" type="curve" smooth="yes"/>
      <point x="789" y="291"/>
      <point x="737" y="235"/>
      <point x="631" y="235" type="curve" smooth="yes"/>
      <point x="258" y="235" type="line"/>
      <point x="258" y="214" type="line"/>
    </contour>
    <contour>
      <point x="447" y="490" type="move" name="top"/>
    </contour>
    <contour>
      <point x="447" y="0" type="move" name="bottom"/>
    </contour>
  </outline>
</glyph>
<glyph name="S.alt2" format="1">
  <advance width="848"/>
  <outline>
    <contour>
      <point x="645" y="-20"/>
      <point x="785" y="24"/>
      <point x="785" y="123" type="curve" smooth="yes"/>
      <point x="785" y="222"/>
      <point x="672" y="242"/>
      <point x="424" y="262" type="curve" smooth="yes"/>
      <point x="203" y="280"/>
      <point x="118" y="312"/>
      <point x="118" y="382" type="curve" smooth="yes"/>
      <point x="118" y="457"/>
      <point x="234" y="494"/>
      <point x="397" y="494" type="curve" smooth="yes"/>
      <point x="519" y="494"/>
      <point x="666" y="466"/>
      <point x="761" y="435" type="curve"/>
      <point x="761" y="459" type="line"/>
      <point x="662" y="493"/>
      <point x="528" y="517"/>
      <point x="397" y="517" type="curve" smooth="yes"/>
      <point x="206" y="517"/>
      <point x="94" y="473"/>
      <point x="94" y="382" type="curve" smooth="yes"/>
      <point x="94" y="288"/>
      <point x="188" y="256"/>
      <point x="423" y="237" type="curve" smooth="yes"/>
      <point x="666" y="218"/>
      <point x="761" y="200"/>
      <point x="761" y="123" type="curve" smooth="yes"/>
      <point x="761" y="47"/>
      <point x="629" y="3"/>
      <point x="475" y="3" type="curve" smooth="yes"/>
      <point x="329" y="3"/>
      <point x="174" y="40"/>
      <point x="63" y="95" type="curve"/>
      <point x="63" y="67" type="line"/>
      <point x="174" y="15"/>
      <point x="321" y="-20"/>
      <point x="473" y="-20" type="curve" smooth="yes"/>
    </contour>
    <contour>
      <point x="424" y="520" type="move" name="top"/>
    </contour>
    <contour>
      <point x="424" y="-20" type="move" name="bottom"/>
    </contour>
  </outline>
</glyph>
<glyph name="a.alt" format="1">
  <advance width="858"/>
  <outline>
    <contour>
      <point x="783" y="-20"/>
      <point x="806" y="39"/>
      <point x="806" y="88" type="curve" smooth="yes"/>
      <point x="806" y="102" type="line"/>
      <point x="781" y="102" type="line"/>
      <point x="781" y="88" type="line" smooth="yes"/>
      <point x="781" y="39"/>
      <point x="760" y="3"/>
      <point x="718" y="3" type="curve" smooth="yes"/>
      <point x="672" y="3"/>
      <point x="651" y="39"/>
      <point x="651" y="98" type="curve" smooth="yes"/>
      <point x="651" y="207" type="line" smooth="yes"/>
      <point x="651" y="307"/>
      <point x="594" y="377"/>
      <point x="450" y="377" type="curve" smooth="yes"/>
      <point x="337" y="377"/>
      <point x="224" y="364"/>
      <point x="99" y="336" type="curve"/>
      <point x="99" y="311" type="line"/>
      <point x="225" y="340"/>
      <point x="337" y="354"/>
      <point x="450" y="354" type="curve" smooth="yes"/>
      <point x="581" y="354"/>
      <point x="627" y="291"/>
      <point x="627" y="207" type="curve" smooth="yes"/>
      <point x="627" y="98" type="line" smooth="yes"/>
      <point x="627" y="29"/>
      <point x="653" y="-20"/>
      <point x="716" y="-20" type="curve" smooth="yes"/>
    </contour>
    <contour>
      <point x="373" y="-20"/>
      <point x="515" y="22"/>
      <point x="637" y="77" type="curve"/>
      <point x="637" y="99" type="line"/>
      <point x="510" y="46"/>
      <point x="371" y="3"/>
      <point x="244" y="3" type="curve" smooth="yes"/>
      <point x="159" y="3"/>
      <point x="95" y="31"/>
      <point x="95" y="99" type="curve" smooth="yes"/>
      <point x="95" y="168"/>
      <point x="186" y="206"/>
      <point x="302" y="206" type="curve" smooth="yes"/>
      <point x="407" y="206"/>
      <point x="528" y="186"/>
      <point x="637" y="158" type="curve"/>
      <point x="637" y="181" type="line"/>
      <point x="528" y="207"/>
      <point x="422" y="229"/>
      <point x="302" y="229" type="curve" smooth="yes"/>
      <point x="172" y="229"/>
      <point x="70" y="185"/>
      <point x="70" y="99" type="curve" smooth="yes"/>
      <point x="70" y="15"/>
      <point x="144" y="-20"/>
      <point x="244" y="-20" type="curve" smooth="yes"/>
    </contour>
    <contour>
      <point x="742" y="-3" type="move" name="ogonek"/>
    </contour>
    <contour>
      <point x="429" y="-20" type="move" name="bottom"/>
    </contour>
    <contour>
      <point x="429" y="377" type="move" name="top"/>
    </contour>
  </outline>
</glyph>
<glyph name="ampersand.alt" format="1">
  <advance width="682"/>
  <outline>
    <contour>
      <point x="707" y="211" type="line"/>
      <point x="707" y="57"/>
      <point x="544" y="-22"/>
      <point x="293" y="-22" type="curve" smooth="yes"/>
      <point x="94" y="-22"/>
      <point x="23" y="34"/>
      <point x="23" y="109" type="curve" smooth="yes"/>
      <point x="23" y="192"/>
      <point x="118" y="221"/>
      <point x="291" y="253" type="curve" smooth="yes"/>
      <point x="431" y="281"/>
      <point x="498" y="326"/>
      <point x="498" y="419" type="curve" smooth="yes"/>
      <point x="498" y="468"/>
      <point x="459" y="516"/>
      <point x="387" y="516" type="curve" smooth="yes"/>
      <point x="297" y="516"/>
      <point x="236" y="436"/>
      <point x="236" y="326" type="curve" smooth="yes"/>
      <point x="236" y="88"/>
      <point x="590" y="-227"/>
      <point x="876" y="-227" type="curve" smooth="yes"/>
      <point x="1046" y="-227"/>
      <point x="1166" y="-173"/>
      <point x="1242" y="-66" type="curve"/>
      <point x="1226" y="-50" type="line"/>
      <point x="1157" y="-148"/>
      <point x="1042" y="-205"/>
      <point x="876" y="-205" type="curve" smooth="yes"/>
      <point x="606" y="-205"/>
      <point x="258" y="112"/>
      <point x="258" y="332" type="curve" smooth="yes"/>
      <point x="258" y="436"/>
      <point x="319" y="495"/>
      <point x="387" y="495" type="curve" smooth="yes"/>
      <point x="443" y="495"/>
      <point x="476" y="459"/>
      <point x="476" y="414" type="curve" smooth="yes"/>
      <point x="476" y="344"/>
      <point x="415" y="298"/>
      <point x="287" y="276" type="curve" smooth="yes"/>
      <point x="100" y="243"/>
      <point x="0" y="204"/>
      <point x="0" y="109" type="curve" smooth="yes"/>
      <point x="0" y="20"/>
      <point x="94" y="-46"/>
      <point x="293" y="-44" type="curve" smooth="yes"/>
      <point x="552" y="-43"/>
      <point x="729" y="43"/>
      <point x="729" y="209" type="curve"/>
    </contour>
    <contour>
      <point x="706" y="182"/>
      <point x="770" y="204"/>
      <point x="859" y="309" type="curve" smooth="yes"/>
      <point x="933" y="398"/>
      <point x="969" y="495"/>
      <point x="1069" y="495" type="curve" smooth="yes"/>
      <point x="1137" y="495"/>
      <point x="1185" y="450"/>
      <point x="1187" y="367" type="curve"/>
      <point x="1210" y="367" type="line"/>
      <point x="1208" y="459"/>
      <point x="1154" y="517"/>
      <point x="1069" y="517" type="curve" smooth="yes"/>
      <point x="958" y="517"/>
      <point x="918" y="419"/>
      <point x="832" y="314" type="curve" smooth="yes"/>
      <point x="756" y="222"/>
      <point x="684" y="204"/>
      <point x="533" y="204" type="curve" smooth="yes"/>
      <point x="456" y="204" type="line"/>
      <point x="456" y="182" type="line"/>
      <point x="533" y="182" type="line" smooth="yes"/>
    </contour>
  </outline>
</glyph>
<glyph name="c.alt" format="1">
  <advance width="741"/>
  <outline>
    <contour>
      <point x="578" y="362"/>
      <point x="495" y="379"/>
      <point x="384" y="379" type="curve"/>
      <point x="229" y="379"/>
      <point x="70" y="311"/>
      <point x="70" y="171" type="curve"/>
      <point x="70" y="48"/>
      <point x="188" y="-20"/>
      <point x="335" y="-20" type="curve"/>
      <point x="461" y="-20"/>
      <point x="575" y="14"/>
      <point x="662" y="60" type="curve"/>
      <point x="662" y="87" type="line"/>
      <point x="573" y="36"/>
      <point x="460" y="2"/>
      <point x="335" y="3" type="curve"/>
      <point x="198" y="2"/>
      <point x="95" y="69"/>
      <point x="95" y="171" type="curve"/>
      <point x="95" y="293"/>
      <point x="239" y="356"/>
      <point x="384" y="356" type="curve"/>
      <point x="495" y="356"/>
      <point x="577" y="336"/>
      <point x="639" y="316" type="curve"/>
      <point x="639" y="227" type="line"/>
      <point x="664" y="227" type="line"/>
      <point x="664" y="333" type="line"/>
    </contour>
    <contour>
      <point x="371" y="387" type="move" name="top"/>
    </contour>
    <contour>
      <point x="371" y="-20" type="move" name="bottom"/>
    </contour>
  </outline>
</glyph>
<glyph name="d.alt" format="1">
  <advance width="861"/>
  <outline>
    <contour>
      <point x="678" y="537" type="line"/>
      <point x="678" y="560" type="line"/>
      <point x="479" y="560" type="line"/>
      <point x="479" y="537" type="line"/>
    </contour>
    <contour>
      <point x="662" y="29"/>
      <point x="689" y="-20"/>
      <point x="752" y="-20" type="curve" smooth="yes"/>
      <point x="819" y="-20"/>
      <point x="841" y="39"/>
      <point x="841" y="88" type="curve" smooth="yes"/>
      <point x="841" y="102" type="line"/>
      <point x="817" y="102" type="line"/>
      <point x="817" y="88" type="line" smooth="yes"/>
      <point x="817" y="38"/>
      <point x="795" y="3"/>
      <point x="753" y="3" type="curve" smooth="yes"/>
      <point x="708" y="3"/>
      <point x="687" y="38"/>
      <point x="687" y="98" type="curve" smooth="yes"/>
      <point x="687" y="560" type="line"/>
      <point x="662" y="560" type="line"/>
      <point x="662" y="98" type="line" smooth="yes"/>
    </contour>
    <contour>
      <point x="606" y="334"/>
      <point x="502" y="376"/>
      <point x="372" y="375" type="curve"/>
      <point x="220" y="376"/>
      <point x="70" y="300"/>
      <point x="70" y="164" type="curve"/>
      <point x="70" y="48"/>
      <point x="165" y="-20"/>
      <point x="308" y="-20" type="curve"/>
      <point x="438" y="-20"/>
      <point x="560" y="44"/>
      <point x="676" y="127" type="curve"/>
      <point x="676" y="151" type="line"/>
      <point x="551" y="62"/>
      <point x="422" y="3"/>
      <point x="308" y="3" type="curve"/>
      <point x="175" y="3"/>
      <point x="95" y="69"/>
      <point x="95" y="164" type="curve"/>
      <point x="95" y="283"/>
      <point x="230" y="353"/>
      <point x="372" y="352" type="curve"/>
      <point x="491" y="353"/>
      <point x="605" y="310"/>
      <point x="678" y="270" type="curve"/>
      <point x="678" y="293" type="line"/>
    </contour>
    <contour>
      <point x="678" y="537" type="line"/>
      <point x="678" y="560" type="line"/>
      <point x="479" y="560" type="line"/>
      <point x="479" y="537" type="line"/>
    </contour>
    <contour>
      <point x="662" y="29"/>
      <point x="689" y="-20"/>
      <point x="752" y="-20" type="curve" smooth="yes"/>
      <point x="819" y="-20"/>
      <point x="841" y="39"/>
      <point x="841" y="88" type="curve" smooth="yes"/>
      <point x="841" y="102" type="line"/>
      <point x="817" y="102" type="line"/>
      <point x="817" y="88" type="line" smooth="yes"/>
      <point x="817" y="38"/>
      <point x="795" y="3"/>
      <point x="753" y="3" type="curve" smooth="yes"/>
      <point x="708" y="3"/>
      <point x="687" y="38"/>
      <point x="687" y="98" type="curve" smooth="yes"/>
      <point x="687" y="560" type="line"/>
      <point x="662" y="560" type="line"/>
      <point x="662" y="98" type="line" smooth="yes"/>
    </contour>
    <contour>
      <point x="606" y="334"/>
      <point x="502" y="376"/>
      <point x="372" y="375" type="curve"/>
      <point x="220" y="376"/>
      <point x="70" y="300"/>
      <point x="70" y="164" type="curve"/>
      <point x="70" y="48"/>
      <point x="165" y="-20"/>
      <point x="308" y="-20" type="curve"/>
      <point x="438" y="-20"/>
      <point x="560" y="44"/>
      <point x="676" y="127" type="curve"/>
      <point x="676" y="151" type="line"/>
      <point x="551" y="62"/>
      <point x="422" y="3"/>
      <point x="308" y="3" type="curve"/>
      <point x="175" y="3"/>
      <point x="95" y="69"/>
      <point x="95" y="164" type="curve"/>
      <point x="95" y="283"/>
      <point x="230" y="353"/>
      <point x="372" y="352" type="curve"/>
      <point x="491" y="353"/>
      <point x="605" y="310"/>
      <point x="678" y="270" type="curve"/>
      <point x="678" y="293" type="line"/>
    </contour>
    <contour>
      <point x="431" y="-20" type="move" name="bottom"/>
    </contour>
    <contour>
      <point x="431" y="387" type="move" name="top"/>
    </contour>
    <contour>
      <point x="841" y="357" type="move" name="topright"/>
    </contour>
    <contour>
      <point x="431" y="179" type="move" name="center"/>
    </contour>
  </outline>
</glyph>
<glyph name="f.alt" format="1">
  <advance width="492"/>
  <outline>
    <contour>
      <point x="160" y="419"/>
      <point x="196" y="380"/>
      <point x="229" y="348" type="curve"/>
      <point x="229" y="0" type="line"/>
      <point x="254" y="0" type="line"/>
      <point x="254" y="348" type="line"/>
      <point x="221" y="384"/>
      <point x="185" y="425"/>
      <point x="185" y="472" type="curve"/>
      <point x="185" y="526"/>
      <point x="237" y="562"/>
      <point x="318" y="562" type="curve" smooth="yes"/>
      <point x="397" y="562"/>
      <point x="455" y="540"/>
      <point x="503" y="520" type="curve"/>
      <point x="513" y="541" type="line"/>
      <point x="458" y="564"/>
      <point x="397" y="585"/>
      <point x="319" y="585" type="curve" smooth="yes"/>
      <point x="221" y="585"/>
      <point x="160" y="537"/>
      <point x="160" y="471" type="curve"/>
    </contour>
    <contour>
      <point x="90" y="357" type="line"/>
      <point x="90" y="334" type="line"/>
      <point x="436" y="334" type="line"/>
      <point x="436" y="357" type="line"/>
    </contour>
    <contour>
      <point x="90" y="0" type="line"/>
      <point x="442" y="0" type="line"/>
      <point x="442" y="23" type="line"/>
      <point x="90" y="23" type="line"/>
    </contour>
    <contour>
      <point x="246" y="357" type="move" name="top"/>
    </contour>
    <contour>
      <point x="246" y="0" type="move" name="bottom"/>
    </contour>
  </outline>
</glyph>
<glyph name="five.alt" format="1">
  <advance width="628"/>
  <outline>
    <contour>
      <point x="84" y="447" type="line"/>
      <point x="578" y="447" type="line"/>
      <point x="578" y="470" type="line"/>
      <point x="84" y="470" type="line"/>
    </contour>
    <contour>
      <point x="109" y="191" type="line"/>
      <point x="109" y="470" type="line"/>
      <point x="85" y="470" type="line"/>
      <point x="84" y="177" type="line"/>
      <point x="170" y="200"/>
      <point x="259" y="223"/>
      <point x="370" y="223" type="curve" smooth="yes"/>
      <point x="488" y="223"/>
      <point x="567" y="182"/>
      <point x="565" y="91" type="curve" smooth="yes"/>
      <point x="562" y="-20"/>
      <point x="378" y="-107"/>
      <point x="97" y="-93" type="curve"/>
      <point x="97" y="-116" type="line"/>
      <point x="383" y="-130"/>
      <point x="590" y="-40"/>
      <point x="590" y="92" type="curve" smooth="yes"/>
      <point x="590" y="203"/>
      <point x="492" y="247"/>
      <point x="370" y="247" type="curve" smooth="yes"/>
      <point x="259" y="247"/>
      <point x="171" y="224"/>
      <point x="89" y="202" type="curve"/>
    </contour>
  </outline>
</glyph>
<glyph name="g.alt" format="1">
  <advance width="795"/>
  <outline>
    <contour>
      <point x="478" y="353"/>
      <point x="578" y="315"/>
      <point x="669" y="269" type="curve"/>
      <point x="673" y="293" type="line"/>
      <point x="583" y="339"/>
      <point x="484" y="376"/>
      <point x="369" y="375" type="curve"/>
      <point x="218" y="376"/>
      <point x="70" y="293"/>
      <point x="70" y="160" type="curve"/>
      <point x="70" y="48"/>
      <point x="165" y="-20"/>
      <point x="294" y="-20" type="curve"/>
      <point x="424" y="-20"/>
      <point x="560" y="51"/>
      <point x="676" y="134" type="curve"/>
      <point x="676" y="158" type="line"/>
      <point x="551" y="69"/>
      <point x="408" y="3"/>
      <point x="294" y="3" type="curve"/>
      <point x="175" y="3"/>
      <point x="95" y="69"/>
      <point x="95" y="160" type="curve"/>
      <point x="95" y="276"/>
      <point x="229" y="353"/>
      <point x="369" y="352" type="curve"/>
    </contour>
    <contour>
      <point x="102" y="-143" type="line"/>
      <point x="176" y="-177"/>
      <point x="299" y="-210"/>
      <point x="410" y="-210" type="curve" smooth="yes"/>
      <point x="592" y="-210"/>
      <point x="687" y="-121"/>
      <point x="686" y="18" type="curve"/>
      <point x="686" y="357" type="line"/>
      <point x="661" y="357" type="line"/>
      <point x="661" y="17" type="line"/>
      <point x="661" y="-106"/>
      <point x="575" y="-187"/>
      <point x="411" y="-187" type="curve" smooth="yes"/>
      <point x="305" y="-187"/>
      <point x="183" y="-154"/>
      <point x="109" y="-120" type="curve"/>
    </contour>
    <contour>
      <point x="398" y="387" type="move" name="top"/>
    </contour>
    <contour>
      <point x="398" y="-210" type="move" name="bottom"/>
    </contour>
  </outline>
</glyph>
<glyph name="germandbls.001" format="1">
  <advance width="839"/>
  <outline>
    <contour>
      <point x="90" y="0" type="line"/>
      <point x="230" y="0" type="line"/>
      <point x="230" y="23" type="line"/>
      <point x="90" y="23" type="line"/>
    </contour>
    <contour>
      <point x="229" y="357" type="line"/>
      <point x="90" y="357" type="line"/>
      <point x="90" y="334" type="line"/>
      <point x="229" y="334" type="line"/>
    </contour>
    <contour>
      <point x="637" y="270"/>
      <point x="734" y="322"/>
      <point x="734" y="412" type="curve" smooth="yes"/>
      <point x="734" y="516"/>
      <point x="602" y="585"/>
      <point x="450" y="585" type="curve" smooth="yes"/>
      <point x="285" y="585"/>
      <point x="220" y="504"/>
      <point x="220" y="406" type="curve" smooth="yes"/>
      <point x="220" y="0" type="line"/>
      <point x="245" y="0" type="line"/>
      <point x="245" y="408" type="line" smooth="yes"/>
      <point x="245" y="495"/>
      <point x="302" y="562"/>
      <point x="448" y="562" type="curve" smooth="yes"/>
      <point x="589" y="562"/>
      <point x="709" y="504"/>
      <point x="709" y="412" type="curve" smooth="yes"/>
      <point x="709" y="341"/>
      <point x="637" y="294"/>
      <point x="497" y="259" type="curve"/>
      <point x="497" y="243" type="line"/>
      <point x="658" y="222"/>
      <point x="780" y="190"/>
      <point x="780" y="103" type="curve" smooth="yes"/>
      <point x="780" y="37"/>
      <point x="720" y="3"/>
      <point x="656" y="3" type="curve" smooth="yes"/>
      <point x="557" y="3"/>
      <point x="453" y="64"/>
      <point x="367" y="168" type="curve"/>
      <point x="367" y="0" type="line"/>
      <point x="390" y="0" type="line"/>
      <point x="390" y="130" type="line"/>
      <point x="375" y="130" type="line"/>
      <point x="438" y="55"/>
      <point x="543" y="-20"/>
      <point x="655" y="-20" type="curve" smooth="yes"/>
      <point x="736" y="-20"/>
      <point x="804" y="24"/>
      <point x="804" y="103" type="curve" smooth="yes"/>
      <point x="804" y="207"/>
      <point x="658" y="248"/>
      <point x="513" y="253" type="curve"/>
      <point x="513" y="248" type="line"/>
    </contour>
    <contour>
      <point x="420" y="357" type="move" name="top"/>
    </contour>
    <contour>
      <point x="420" y="0" type="move" name="bottom"/>
    </contour>
  </outline>
</glyph>
<glyph name="s.alt" format="1">
  <advance width="683"/>
  <outline>
    <contour>
      <point x="503" y="176"/>
      <point x="599" y="154"/>
      <point x="599" y="78" type="curve" smooth="yes"/>
      <point x="599" y="6"/>
      <point x="498" y="-20"/>
      <point x="361" y="-20" type="curve" smooth="yes"/>
      <point x="243" y="-20"/>
      <point x="144" y="9"/>
      <point x="70" y="48" type="curve"/>
      <point x="82" y="71" type="line"/>
      <point x="148" y="31"/>
      <point x="248" y="3"/>
      <point x="361" y="3" type="curve" smooth="yes"/>
      <point x="487" y="3"/>
      <point x="575" y="22"/>
      <point x="575" y="76" type="curve" smooth="yes"/>
      <point x="575" y="134"/>
      <point x="496" y="151"/>
      <point x="328" y="163" type="curve" smooth="yes"/>
      <point x="160" y="175"/>
      <point x="89" y="204"/>
      <point x="89" y="272" type="curve" smooth="yes"/>
      <point x="89" y="339"/>
      <point x="169" y="375"/>
      <point x="312" y="375" type="curve" smooth="yes"/>
      <point x="410" y="375"/>
      <point x="498" y="365"/>
      <point x="577" y="344" type="curve"/>
      <point x="577" y="241" type="line"/>
      <point x="552" y="241" type="line"/>
      <point x="552" y="326" type="line"/>
      <point x="497" y="340"/>
      <point x="404" y="353"/>
      <point x="305" y="353" type="curve" smooth="yes"/>
      <point x="201" y="353"/>
      <point x="113" y="330"/>
      <point x="113" y="273" type="curve" smooth="yes"/>
      <point x="113" y="222"/>
      <point x="169" y="199"/>
      <point x="328" y="188" type="curve" smooth="yes"/>
    </contour>
    <contour>
      <point x="342" y="387" type="move" name="top"/>
    </contour>
    <contour>
      <point x="342" y="-20" type="move" name="bottom"/>
    </contour>
  </outline>
</glyph>
<glyph name="s.alt2" format="1">
  <advance width="683"/>
  <outline>
    <contour>
      <point x="498" y="-20"/>
      <point x="602" y="6"/>
      <point x="602" y="81" type="curve" smooth="yes"/>
      <point x="602" y="158"/>
      <point x="517" y="178"/>
      <point x="333" y="193" type="curve" smooth="yes"/>
      <point x="167" y="206"/>
      <point x="109" y="226"/>
      <point x="109" y="277" type="curve" smooth="yes"/>
      <point x="109" y="335"/>
      <point x="201" y="353"/>
      <point x="312" y="353" type="curve" smooth="yes"/>
      <point x="404" y="353"/>
      <point x="513" y="332"/>
      <point x="584" y="308" type="curve"/>
      <point x="584" y="330" type="line"/>
      <point x="510" y="355"/>
      <point x="410" y="375"/>
      <point x="312" y="375" type="curve" smooth="yes"/>
      <point x="169" y="375"/>
      <point x="85" y="346"/>
      <point x="85" y="277" type="curve" smooth="yes"/>
      <point x="85" y="208"/>
      <point x="156" y="182"/>
      <point x="331" y="167" type="curve" smooth="yes"/>
      <point x="508" y="153"/>
      <point x="578" y="139"/>
      <point x="578" y="81" type="curve" smooth="yes"/>
      <point x="578" y="23"/>
      <point x="486" y="2"/>
      <point x="370" y="2" type="curve" smooth="yes"/>
      <point x="261" y="2"/>
      <point x="149" y="33"/>
      <point x="63" y="75" type="curve"/>
      <point x="63" y="48" type="line"/>
      <point x="149" y="11"/>
      <point x="255" y="-20"/>
      <point x="370" y="-20" type="curve" smooth="yes"/>
    </contour>
    <contour>
      <point x="342" y="387" type="move" name="top"/>
    </contour>
    <contour>
      <point x="342" y="-20" type="move" name="bottom"/>
    </contour>
  </outline>
</glyph>
<glyph name="seven.001" format="1">
  <advance width="642"/>
  <outline>
    <contour>
      <point x="617" y="436" type="line" smooth="yes"/>
      <point x="617" y="325"/>
      <point x="526" y="304"/>
      <point x="362" y="247" type="curve" smooth="yes"/>
      <point x="201" y="191"/>
      <point x="141" y="101"/>
      <point x="141" y="0" type="curve"/>
      <point x="166" y="0" type="line"/>
      <point x="166" y="85"/>
      <point x="214" y="169"/>
      <point x="372" y="225" type="curve" smooth="yes"/>
      <point x="537" y="283"/>
      <point x="642" y="312"/>
      <point x="642" y="436" type="curve" smooth="yes"/>
      <point x="642" y="453" type="line"/>
      <point x="617" y="453" type="line"/>
    </contour>
    <contour>
      <point x="59" y="470" type="line"/>
      <point x="59" y="298" type="line"/>
      <point x="83" y="298" type="line"/>
      <point x="83" y="447" type="line"/>
      <point x="642" y="447" type="line"/>
      <point x="642" y="470" type="line"/>
    </contour>
  </outline>
</glyph>
<glyph name="t.alt" format="1">
  <advance width="493"/>
  <outline>
    <contour>
      <point x="395" y="357" type="line"/>
      <point x="63" y="357" type="line"/>
      <point x="63" y="334" type="line"/>
      <point x="395" y="334" type="line"/>
    </contour>
    <contour>
      <point x="422" y="43" type="line"/>
      <point x="385" y="23"/>
      <point x="327" y="3"/>
      <point x="272" y="3" type="curve" smooth="yes"/>
      <point x="210" y="3"/>
      <point x="168" y="31"/>
      <point x="168" y="113" type="curve"/>
      <point x="168" y="195"/>
      <point x="206" y="321"/>
      <point x="211" y="340" type="curve"/>
      <point x="212" y="347" type="line"/>
      <point x="212" y="490" type="line"/>
      <point x="187" y="490" type="line"/>
      <point x="187" y="348" type="line"/>
      <point x="188" y="342" type="line"/>
      <point x="182" y="321"/>
      <point x="143" y="196"/>
      <point x="143" y="113" type="curve"/>
      <point x="143" y="17"/>
      <point x="193" y="-20"/>
      <point x="273" y="-20" type="curve" smooth="yes"/>
      <point x="330" y="-20"/>
      <point x="390" y="1"/>
      <point x="430" y="21" type="curve"/>
    </contour>
    <contour>
      <point x="287" y="-20" type="move" name="bottom"/>
    </contour>
    <contour>
      <point x="247" y="357" type="move" name="top"/>
    </contour>
    <contour>
      <point x="473" y="357" type="move" name="topright"/>
    </contour>
    <contour>
      <point x="247" y="179" type="move" name="center"/>
    </contour>
  </outline>
</glyph>
<glyph name="two.001" format="1">
  <advance width="736"/>
  <outline>
    <contour>
      <point x="418" y="156" type="line" smooth="yes"/>
      <point x="544" y="210"/>
      <point x="630" y="261"/>
      <point x="630" y="343" type="curve" smooth="yes"/>
      <point x="630" y="437"/>
      <point x="525" y="490"/>
      <point x="388" y="490" type="curve" smooth="yes"/>
      <point x="262" y="490"/>
      <point x="141" y="446"/>
      <point x="74" y="353" type="curve"/>
      <point x="91" y="338" type="line"/>
      <point x="158" y="426"/>
      <point x="273" y="467"/>
      <point x="388" y="467" type="curve" smooth="yes"/>
      <point x="521" y="467"/>
      <point x="605" y="417"/>
      <point x="605" y="344" type="curve" smooth="yes"/>
      <point x="605" y="276"/>
      <point x="537" y="232"/>
      <point x="416" y="179" type="curve" smooth="yes"/>
      <point x="58" y="23" type="line"/>
      <point x="80" y="11" type="line"/>
    </contour>
    <contour>
      <point x="652" y="0" type="line"/>
      <point x="652" y="172" type="line"/>
      <point x="628" y="172" type="line"/>
      <point x="628" y="23" type="line"/>
      <point x="59" y="23" type="line"/>
      <point x="59" y="0" type="line"/>
    </contour>
  </outline>
</glyph>
<glyph name="two.alt" format="1">
  <advance width="725"/>
  <outline>
    <contour>
      <point x="634" y="123" type="line"/>
      <point x="624" y="46"/>
      <point x="581" y="4"/>
      <point x="496" y="4" type="curve" smooth="yes"/>
      <point x="389" y="4"/>
      <point x="285" y="58"/>
      <point x="181" y="121" type="curve"/>
      <point x="169" y="100" type="line"/>
      <point x="272" y="38"/>
      <point x="384" y="-20"/>
      <point x="495" y="-20" type="curve" smooth="yes"/>
      <point x="600" y="-20"/>
      <point x="649" y="41"/>
      <point x="658" y="120" type="curve"/>
    </contour>
    <contour>
      <point x="575" y="258"/>
      <point x="447" y="218"/>
      <point x="322" y="184" type="curve" smooth="yes"/>
      <point x="182" y="146"/>
      <point x="104" y="106"/>
      <point x="46" y="-15" type="curve"/>
      <point x="65" y="-26" type="line"/>
      <point x="126" y="89"/>
      <point x="192" y="125"/>
      <point x="328" y="162" type="curve" smooth="yes"/>
      <point x="461" y="198"/>
      <point x="599" y="245"/>
      <point x="599" y="355" type="curve" smooth="yes"/>
      <point x="599" y="444"/>
      <point x="503" y="491"/>
      <point x="371" y="491" type="curve" smooth="yes"/>
      <point x="251" y="491"/>
      <point x="139" y="451"/>
      <point x="48" y="382" type="curve"/>
      <point x="48" y="351" type="line"/>
      <point x="142" y="429"/>
      <point x="259" y="468"/>
      <point x="371" y="468" type="curve" smooth="yes"/>
      <point x="498" y="468"/>
      <point x="575" y="424"/>
      <point x="575" y="356" type="curve" smooth="yes"/>
    </contour>
  </outline>
</glyph>
<glyph name="two.alt2" format="1">
  <advance width="687"/>
  <outline>
    <contour>
      <point x="275" y="29"/>
      <point x="392" y="-20"/>
      <point x="596" y="-20" type="curve" smooth="yes"/>
      <point x="620" y="-20" type="line"/>
      <point x="620" y="134" type="line"/>
      <point x="596" y="134" type="line"/>
      <point x="596" y="3" type="line"/>
      <point x="407" y="3"/>
      <point x="284" y="52"/>
      <point x="155" y="115" type="curve"/>
      <point x="146" y="94" type="line"/>
    </contour>
    <contour>
      <point x="575" y="260"/>
      <point x="447" y="218"/>
      <point x="322" y="184" type="curve" smooth="yes"/>
      <point x="182" y="146"/>
      <point x="104" y="106"/>
      <point x="46" y="-15" type="curve"/>
      <point x="65" y="-26" type="line"/>
      <point x="126" y="89"/>
      <point x="192" y="125"/>
      <point x="328" y="162" type="curve" smooth="yes"/>
      <point x="461" y="198"/>
      <point x="599" y="247"/>
      <point x="599" y="354" type="curve" smooth="yes"/>
      <point x="599" y="443"/>
      <point x="503" y="490"/>
      <point x="371" y="490" type="curve" smooth="yes"/>
      <point x="251" y="490"/>
      <point x="139" y="451"/>
      <point x="48" y="381" type="curve"/>
      <point x="48" y="350" type="line"/>
      <point x="142" y="428"/>
      <point x="259" y="467"/>
      <point x="371" y="467" type="curve" smooth="yes"/>
      <point x="498" y="467"/>
      <point x="575" y="423"/>
      <point x="575" y="354" type="curve" smooth="yes"/>
    </contour>
  </outline>
</glyph>
<glyph name="u.alt" format="1">
  <advance width="870"/>
  <outline>
    <contour>
      <point x="688" y="334" type="line"/>
      <point x="688" y="357" type="line"/>
      <point x="482" y="357" type="line"/>
      <point x="482" y="334" type="line"/>
    </contour>
    <contour>
      <point x="486" y="-20"/>
      <point x="581" y="31"/>
      <point x="681" y="79" type="curve"/>
      <point x="681" y="101" type="line"/>
      <point x="581" y="52"/>
      <point x="471" y="3"/>
      <point x="372" y="3" type="curve"/>
      <point x="262" y="3"/>
      <point x="201" y="50"/>
      <point x="201" y="156" type="curve"/>
      <point x="201" y="357" type="line"/>
      <point x="176" y="357" type="line"/>
      <point x="176" y="156" type="line"/>
      <point x="176" y="30"/>
      <point x="252" y="-19"/>
      <point x="372" y="-20" type="curve"/>
    </contour>
    <contour>
      <point x="188" y="334" type="line"/>
      <point x="188" y="357" type="line"/>
      <point x="-5" y="357" type="line"/>
      <point x="-5" y="334" type="line"/>
    </contour>
    <contour>
      <point x="670" y="29"/>
      <point x="697" y="-20"/>
      <point x="760" y="-20" type="curve" smooth="yes"/>
      <point x="827" y="-20"/>
      <point x="850" y="39"/>
      <point x="850" y="88" type="curve" smooth="yes"/>
      <point x="850" y="102" type="line"/>
      <point x="825" y="102" type="line"/>
      <point x="825" y="88" type="line" smooth="yes"/>
      <point x="825" y="38"/>
      <point x="804" y="3"/>
      <point x="762" y="3" type="curve" smooth="yes"/>
      <point x="716" y="3"/>
      <point x="695" y="38"/>
      <point x="695" y="98" type="curve"/>
      <point x="695" y="357" type="line"/>
      <point x="670" y="357" type="line"/>
      <point x="670" y="98" type="line"/>
    </contour>
    <contour>
      <point x="783" y="-4" type="move" name="ogonek"/>
    </contour>
    <contour>
      <point x="435" y="357" type="move" name="top"/>
    </contour>
    <contour>
      <point x="850" y="357" type="move" name="topright"/>
    </contour>
    <contour>
      <point x="435" y="-20" type="move" name="bottom"/>
    </contour>
  </outline>
</glyph>
<glyph name="x.alt" format="1">
  <advance width="727"/>
  <outline>
    <contour>
      <point x="270" y="334" type="line"/>
      <point x="270" y="357" type="line"/>
      <point x="18" y="357" type="line"/>
      <point x="18" y="334" type="line"/>
    </contour>
    <contour>
      <point x="456" y="23" type="line"/>
      <point x="456" y="0" type="line"/>
      <point x="709" y="0" type="line"/>
      <point x="709" y="23" type="line"/>
    </contour>
    <contour>
      <point x="709" y="357" type="line"/>
      <point x="456" y="357" type="line"/>
      <point x="456" y="334" type="line"/>
      <point x="709" y="334" type="line"/>
    </contour>
    <contour>
      <point x="18" y="0" type="line"/>
      <point x="270" y="0" type="line"/>
      <point x="270" y="23" type="line"/>
      <point x="18" y="23" type="line"/>
    </contour>
    <contour>
      <point x="270" y="334" type="line"/>
      <point x="270" y="357" type="line"/>
      <point x="18" y="357" type="line"/>
      <point x="18" y="334" type="line"/>
    </contour>
    <contour>
      <point x="456" y="23" type="line"/>
      <point x="456" y="0" type="line"/>
      <point x="709" y="0" type="line"/>
      <point x="709" y="23" type="line"/>
    </contour>
    <contour>
      <point x="709" y="357" type="line"/>
      <point x="456" y="357" type="line"/>
      <point x="456" y="334" type="line"/>
      <point x="709" y="334" type="line"/>
    </contour>
    <contour>
      <point x="18" y="0" type="line"/>
      <point x="270" y="0" type="line"/>
      <point x="270" y="23" type="line"/>
      <point x="18" y="23" type="line"/>
    </contour>
    <contour>
      <point x="123" y="350" type="line"/>
      <point x="354" y="171" type="line"/>
      <point x="358" y="171" type="line"/>
      <point x="573" y="0" type="line"/>
      <point x="609" y="0" type="line"/>
      <point x="380" y="183" type="line"/>
      <point x="376" y="183" type="line"/>
      <point x="159" y="350" type="line"/>
    </contour>
    <contour>
      <point x="358" y="183" type="line"/>
      <point x="354" y="183" type="line"/>
      <point x="125" y="0" type="line"/>
      <point x="159" y="0" type="line"/>
      <point x="374" y="171" type="line"/>
      <point x="378" y="171" type="line"/>
      <point x="609" y="350" type="line"/>
      <point x="575" y="350" type="line"/>
    </contour>
    <contour>
      <point x="364" y="357" type="move" name="top"/>
    </contour>
    <contour>
      <point x="364" y="0" type="move" name="bottom"/>
    </contour>
  </outline>
</glyph>
